<svg width="201" height="47" viewBox="0 0 201 47" fill="none" xmlns="http://www.w3.org/2000/svg">
<g clip-path="url(#clip0_287_1342)">
<path d="M191.879 0.710938H9.12068C4.67701 0.710938 1.07471 4.31324 1.07471 8.75691V38.642C1.07471 43.0856 4.67701 46.688 9.12068 46.688H191.879C196.323 46.688 199.925 43.0856 199.925 38.642V8.75691C199.925 4.31324 196.323 0.710938 191.879 0.710938Z" fill="white"/>
<path d="M58.2137 29.8881C58.2137 30.5184 58.7391 31.033 59.3857 31.033H60.7253V34.2764C60.7253 35.0981 61.3992 35.7688 62.2272 35.7688C63.058 35.7688 63.7291 35.1006 63.7291 34.2764V31.0303H66.0673V34.2737C66.0673 35.0953 66.7413 35.766 67.5692 35.766C68.3999 35.766 69.0712 35.0981 69.0712 34.2737V31.0303H70.4108C71.0573 31.0303 71.5827 30.5158 71.5827 29.8855V19.2394H58.2137V29.8881ZM68.0368 13.7224L69.272 11.9714C69.3435 11.869 69.327 11.7316 69.2307 11.6643C69.1344 11.5996 68.9969 11.6319 68.9253 11.7343L67.6435 13.5553C66.799 13.2294 65.8582 13.0489 64.8707 13.0489C63.8831 13.0489 62.9423 13.2294 62.098 13.5553L60.816 11.737C60.7445 11.6346 60.6069 11.5996 60.5107 11.667C60.4144 11.7316 60.398 11.8663 60.4695 11.974L61.7045 13.725C59.7405 14.6195 58.3651 16.3138 58.189 18.2938H71.5579C71.3764 16.3111 69.9982 14.6167 68.0368 13.7224ZM62.0483 16.4836C61.902 16.4836 61.759 16.4411 61.6373 16.3614C61.5156 16.2818 61.4207 16.1686 61.3647 16.0363C61.3088 15.9037 61.2941 15.7581 61.3226 15.6175C61.3512 15.477 61.4216 15.3478 61.5252 15.2465C61.6287 15.1451 61.7605 15.0761 61.9041 15.0482C62.0475 15.0202 62.1962 15.0347 62.3315 15.0894C62.4667 15.1442 62.5823 15.2372 62.6637 15.3564C62.745 15.4756 62.7884 15.6156 62.7884 15.7589C62.7878 15.951 62.7097 16.135 62.5711 16.2707C62.4324 16.4065 62.2445 16.483 62.0483 16.4836ZM67.7811 16.4836C67.6346 16.4836 67.4916 16.4411 67.3699 16.3614C67.2483 16.2818 67.1534 16.1686 67.0974 16.0363C67.0414 15.9037 67.0268 15.7581 67.0553 15.6175C67.0838 15.477 67.1543 15.3478 67.2579 15.2465C67.3613 15.1451 67.4931 15.0761 67.6367 15.0482C67.7801 15.0202 67.929 15.0347 68.0642 15.0894C68.1993 15.1442 68.3151 15.2372 68.3964 15.3564C68.4776 15.4756 68.5211 15.6156 68.5211 15.7589C68.5205 15.951 68.4423 16.135 68.3037 16.2707C68.1651 16.4065 67.9772 16.483 67.7811 16.4836ZM73.9264 19.1963C73.0956 19.1963 72.4244 19.8643 72.4244 20.6886V26.5181C72.4244 27.3397 73.0984 28.0105 73.9264 28.0105C74.757 28.0105 75.4283 27.3425 75.4283 26.5181V20.6859C75.4311 19.8615 74.7599 19.1963 73.9264 19.1963ZM55.8096 19.1963C54.9789 19.1963 54.3076 19.8643 54.3076 20.6886V26.5181C54.3076 27.3397 54.9815 28.0105 55.8096 28.0105C56.6404 28.0105 57.3115 27.3425 57.3115 26.5181V20.6859C57.3115 19.8615 56.6375 19.1963 55.8096 19.1963Z" fill="#1D1D1D"/>
<path d="M88.8197 29.4469H87.334L91.6312 17.7437H93.0941L97.3915 29.4469H95.9056L92.4083 19.5952H92.317L88.8197 29.4469ZM89.3682 24.8753H95.3571V26.1325H89.3682V24.8753ZM100.38 24.1667V29.4469H99.0314V20.6694H100.334V22.0409H100.449C100.654 21.5952 100.967 21.2371 101.386 20.9667C101.805 20.6923 102.346 20.5552 103.009 20.5552C103.603 20.5552 104.123 20.6771 104.569 20.9209C105.015 21.1609 105.361 21.5267 105.609 22.018C105.856 22.5057 105.98 23.1229 105.98 23.8695V29.4469H104.632V23.961C104.632 23.2715 104.453 22.7343 104.094 22.3495C103.736 21.9609 103.245 21.7667 102.62 21.7667C102.19 21.7667 101.805 21.86 101.466 22.0467C101.131 22.2333 100.866 22.5057 100.671 22.8638C100.477 23.222 100.38 23.6562 100.38 24.1667ZM111.759 29.6298C111.028 29.6298 110.382 29.4449 109.822 29.0754C109.262 28.7021 108.824 28.1763 108.507 27.4983C108.191 26.8163 108.033 26.0106 108.033 25.081C108.033 24.1591 108.191 23.3591 108.507 22.6809C108.824 22.0029 109.264 21.479 109.828 21.1094C110.391 20.74 111.043 20.5552 111.782 20.5552C112.353 20.5552 112.805 20.6505 113.136 20.8409C113.471 21.0276 113.727 21.2409 113.902 21.4809C114.081 21.7171 114.22 21.9114 114.319 22.0638H114.433V17.7437H115.782V29.4469H114.479V28.0983H114.319C114.22 28.2583 114.079 28.4602 113.896 28.704C113.713 28.944 113.452 29.1593 113.113 29.3498C112.774 29.5364 112.323 29.6298 111.759 29.6298ZM111.942 28.4183C112.483 28.4183 112.94 28.2774 113.313 27.9954C113.687 27.7097 113.971 27.3154 114.165 26.8125C114.359 26.3059 114.456 25.721 114.456 25.0582C114.456 24.4029 114.361 23.8295 114.171 23.3382C113.98 22.8429 113.698 22.458 113.325 22.1838C112.951 21.9057 112.49 21.7667 111.942 21.7667C111.37 21.7667 110.894 21.9133 110.513 22.2067C110.136 22.4962 109.852 22.8905 109.662 23.3895C109.475 23.8848 109.382 24.441 109.382 25.0582C109.382 25.683 109.477 26.2506 109.668 26.7611C109.862 27.2678 110.148 27.6716 110.525 27.9725C110.906 28.2698 111.378 28.4183 111.942 28.4183ZM118.439 29.4469V20.6694H119.743V21.9952H119.833C119.993 21.5609 120.283 21.2085 120.702 20.938C121.121 20.6676 121.593 20.5323 122.12 20.5323C122.218 20.5323 122.343 20.5343 122.491 20.538C122.639 20.5418 122.752 20.5476 122.828 20.5552V21.9267C122.782 21.9152 122.677 21.898 122.514 21.8752C122.354 21.8485 122.184 21.8352 122.005 21.8352C121.578 21.8352 121.198 21.9247 120.862 22.1038C120.531 22.2791 120.268 22.5229 120.074 22.8353C119.883 23.1438 119.787 23.4962 119.787 23.8924V29.4469H118.439ZM127.725 29.6298C126.933 29.6298 126.238 29.4411 125.639 29.064C125.045 28.6869 124.581 28.1592 124.245 27.4811C123.914 26.803 123.748 26.0106 123.748 25.1039C123.748 24.1895 123.914 23.3915 124.245 22.7095C124.581 22.0276 125.045 21.498 125.639 21.1209C126.238 20.7438 126.933 20.5552 127.725 20.5552C128.517 20.5552 129.212 20.7438 129.806 21.1209C130.404 21.498 130.868 22.0276 131.2 22.7095C131.535 23.3915 131.702 24.1895 131.702 25.1039C131.702 26.0106 131.535 26.803 131.2 27.4811C130.868 28.1592 130.404 28.6869 129.806 29.064C129.212 29.4411 128.517 29.6298 127.725 29.6298ZM127.725 28.4183C128.328 28.4183 128.822 28.264 129.212 27.9554C129.6 27.6468 129.887 27.2411 130.074 26.7383C130.261 26.2354 130.354 25.6906 130.354 25.1039C130.354 24.5172 130.261 23.9706 130.074 23.4638C129.887 22.9571 129.6 22.5476 129.212 22.2353C128.822 21.9229 128.328 21.7667 127.725 21.7667C127.123 21.7667 126.628 21.9229 126.239 22.2353C125.851 22.5476 125.563 22.9571 125.377 23.4638C125.19 23.9706 125.097 24.5172 125.097 25.1039C125.097 25.6906 125.19 26.2354 125.377 26.7383C125.563 27.2411 125.851 27.6468 126.239 27.9554C126.628 28.264 127.123 28.4183 127.725 28.4183ZM133.761 29.4469V20.6694H135.109V29.4469H133.761ZM134.447 19.2066C134.184 19.2066 133.958 19.117 133.767 18.9379C133.581 18.759 133.487 18.5437 133.487 18.2923C133.487 18.0408 133.581 17.8255 133.767 17.6466C133.958 17.4675 134.184 17.3779 134.447 17.3779C134.709 17.3779 134.935 17.4675 135.121 17.6466C135.312 17.8255 135.407 18.0408 135.407 18.2923C135.407 18.5437 135.312 18.759 135.121 18.9379C134.935 19.117 134.709 19.2066 134.447 19.2066ZM140.894 29.6298C140.163 29.6298 139.517 29.4449 138.958 29.0754C138.397 28.7021 137.959 28.1763 137.643 27.4983C137.327 26.8163 137.168 26.0106 137.168 25.081C137.168 24.1591 137.327 23.3591 137.643 22.6809C137.959 22.0029 138.399 21.479 138.963 21.1094C139.527 20.74 140.178 20.5552 140.917 20.5552C141.489 20.5552 141.94 20.6505 142.271 20.8409C142.607 21.0276 142.862 21.2409 143.037 21.4809C143.216 21.7171 143.355 21.9114 143.454 22.0638H143.569V17.7437H144.917V29.4469H143.614V28.0983H143.454C143.355 28.2583 143.214 28.4602 143.031 28.704C142.848 28.944 142.587 29.1593 142.248 29.3498C141.909 29.5364 141.458 29.6298 140.894 29.6298ZM141.077 28.4183C141.618 28.4183 142.075 28.2774 142.448 27.9954C142.822 27.7097 143.106 27.3154 143.3 26.8125C143.494 26.3059 143.592 25.721 143.592 25.0582C143.592 24.4029 143.497 23.8295 143.306 23.3382C143.115 22.8429 142.833 22.458 142.46 22.1838C142.086 21.9057 141.625 21.7667 141.077 21.7667C140.506 21.7667 140.03 21.9133 139.648 22.2067C139.271 22.4962 138.987 22.8905 138.797 23.3895C138.61 23.8848 138.517 24.441 138.517 25.0582C138.517 25.683 138.613 26.2506 138.802 26.7611C138.997 27.2678 139.283 27.6716 139.66 27.9725C140.041 28.2698 140.513 28.4183 141.077 28.4183Z" fill="#1D1D1D"/>
</g>
<defs>
<clipPath id="clip0_287_1342">
<rect width="200" height="45.977" fill="white" transform="translate(0.5 0.710938)"/>
</clipPath>
</defs>
</svg>
