<svg width="200" height="47" viewBox="0 0 200 47" fill="none" xmlns="http://www.w3.org/2000/svg">
<path d="M191.908 0H8.09249C3.62313 0 0 3.62313 0 8.09249V38.1503C0 42.6197 3.62313 46.2428 8.09249 46.2428H191.908C196.377 46.2428 200 42.6197 200 38.1503V8.09249C200 3.62313 196.377 0 191.908 0Z" fill="white"/>
<path d="M43.1395 29.1772C43.1395 29.8075 43.6649 30.3221 44.3114 30.3221H45.6511V33.5654C45.6511 34.3872 46.325 35.0579 47.1529 35.0579C47.9837 35.0579 48.6549 34.3897 48.6549 33.5654V30.3193H50.9931V33.5628C50.9931 34.3844 51.6671 35.0551 52.495 35.0551C53.3257 35.0551 53.997 34.3872 53.997 33.5628V30.3193H55.3366C55.9831 30.3193 56.5085 29.8049 56.5085 29.1745V18.5284H43.1395V29.1772ZM52.9626 13.0114L54.1978 11.2604C54.2693 11.158 54.2528 11.0207 54.1565 10.9533C54.0602 10.8887 53.9227 10.921 53.8511 11.0234L52.5693 12.8444C51.7248 12.5184 50.784 12.338 49.7965 12.338C48.8089 12.338 47.8681 12.5184 47.0237 12.8444L45.7418 11.0261C45.6703 10.9237 45.5327 10.8887 45.4365 10.956C45.3402 11.0207 45.3237 11.1554 45.3952 11.2631L46.6303 13.0141C44.6663 13.9085 43.2909 15.6029 43.1148 17.5829H56.4836C56.3021 15.6002 54.924 13.9058 52.9626 13.0114ZM46.9741 15.7727C46.8278 15.7727 46.6848 15.7302 46.5631 15.6505C46.4413 15.5708 46.3465 15.4576 46.2905 15.3253C46.2346 15.1928 46.2198 15.0472 46.2483 14.9066C46.277 14.766 46.3474 14.6368 46.451 14.5356C46.5544 14.4342 46.6863 14.3652 46.8298 14.3373C46.9733 14.3092 47.122 14.3237 47.2573 14.3784C47.3925 14.4333 47.5081 14.5262 47.5895 14.6454C47.6708 14.7646 47.7142 14.9046 47.7142 15.048C47.7136 15.24 47.6355 15.4241 47.4969 15.5598C47.3582 15.6956 47.1703 15.7721 46.9741 15.7727ZM52.7069 15.7727C52.5604 15.7727 52.4174 15.7302 52.2957 15.6505C52.1741 15.5708 52.0792 15.4576 52.0232 15.3253C51.9672 15.1928 51.9526 15.0472 51.9811 14.9066C52.0096 14.766 52.0801 14.6368 52.1836 14.5356C52.2871 14.4342 52.4189 14.3652 52.5625 14.3373C52.7059 14.3092 52.8548 14.3237 52.99 14.3784C53.1251 14.4333 53.2409 14.5262 53.3221 14.6454C53.4034 14.7646 53.4469 14.9046 53.4469 15.048C53.4463 15.24 53.3681 15.4241 53.2295 15.5598C53.0909 15.6956 52.9029 15.7721 52.7069 15.7727ZM58.8521 18.4853C58.0213 18.4853 57.3502 19.1534 57.3502 19.9776V25.8072C57.3502 26.6288 58.0242 27.2996 58.8521 27.2996C59.6828 27.2996 60.3541 26.6315 60.3541 25.8072V19.975C60.3569 19.1506 59.6857 18.4853 58.8521 18.4853ZM40.7354 18.4853C39.9047 18.4853 39.2334 19.1534 39.2334 19.9776V25.8072C39.2334 26.6288 39.9073 27.2996 40.7354 27.2996C41.5662 27.2996 42.2373 26.6315 42.2373 25.8072V19.975C42.2373 19.1506 41.5633 18.4853 40.7354 18.4853Z" fill="#1D1D1D"/>
<path d="M88.7455 28.736H87.2598L91.557 17.0327H93.0199L97.3172 28.736H95.8314L92.3341 18.8842H92.2428L88.7455 28.736ZM89.294 24.1643H95.2829V25.4216H89.294V24.1643ZM100.306 23.4557V28.736H98.9572V19.9585H100.26V21.33H100.374C100.58 20.8842 100.893 20.5262 101.312 20.2557C101.731 19.9814 102.272 19.8442 102.934 19.8442C103.529 19.8442 104.049 19.9662 104.495 20.21C104.94 20.45 105.287 20.8157 105.535 21.3071C105.782 21.7948 105.906 22.4119 105.906 23.1586V28.736H104.557V23.2501C104.557 22.5606 104.378 22.0233 104.02 21.6386C103.662 21.25 103.171 21.0557 102.546 21.0557C102.115 21.0557 101.731 21.1491 101.392 21.3357C101.056 21.5224 100.792 21.7948 100.597 22.1529C100.403 22.511 100.306 22.9453 100.306 23.4557ZM111.685 28.9188C110.953 28.9188 110.308 28.734 109.748 28.3645C109.188 27.9911 108.749 27.4654 108.433 26.7873C108.117 26.1054 107.959 25.2996 107.959 24.3701C107.959 23.4481 108.117 22.6481 108.433 21.97C108.749 21.2919 109.189 20.768 109.753 20.3985C110.317 20.0291 110.969 19.8442 111.708 19.8442C112.279 19.8442 112.731 19.9395 113.062 20.13C113.397 20.3166 113.653 20.53 113.828 20.77C114.007 21.0062 114.146 21.2004 114.245 21.3529H114.359V17.0327H115.707V28.736H114.405V27.3873H114.245C114.146 27.5473 114.005 27.7493 113.822 27.9931C113.639 28.2331 113.378 28.4484 113.039 28.6388C112.7 28.8255 112.249 28.9188 111.685 28.9188ZM111.868 27.7073C112.409 27.7073 112.866 27.5664 113.239 27.2845C113.613 26.9987 113.896 26.6045 114.091 26.1016C114.285 25.5949 114.382 25.0101 114.382 24.3472C114.382 23.6919 114.287 23.1186 114.096 22.6272C113.906 22.1319 113.624 21.7471 113.251 21.4729C112.877 21.1948 112.416 21.0557 111.868 21.0557C111.296 21.0557 110.82 21.2024 110.439 21.4957C110.062 21.7853 109.778 22.1795 109.588 22.6786C109.401 23.1739 109.308 23.7301 109.308 24.3472C109.308 24.972 109.403 25.5396 109.593 26.0502C109.788 26.5569 110.073 26.9607 110.45 27.2616C110.831 27.5588 111.304 27.7073 111.868 27.7073ZM118.365 28.736V19.9585H119.668V21.2842H119.759C119.919 20.85 120.209 20.4976 120.628 20.2271C121.047 19.9566 121.519 19.8214 122.045 19.8214C122.144 19.8214 122.268 19.8233 122.417 19.8271C122.565 19.8309 122.678 19.8366 122.753 19.8442V21.2157C122.707 21.2042 122.603 21.1871 122.44 21.1642C122.28 21.1376 122.11 21.1242 121.93 21.1242C121.504 21.1242 121.124 21.2138 120.788 21.3929C120.457 21.5681 120.194 21.8119 119.999 22.1243C119.809 22.4329 119.713 22.7853 119.713 23.1815V28.736H118.365ZM127.651 28.9188C126.859 28.9188 126.164 28.7302 125.565 28.3531C124.971 27.976 124.506 27.4483 124.171 26.7702C123.84 26.092 123.674 25.2996 123.674 24.393C123.674 23.4786 123.84 22.6806 124.171 21.9986C124.506 21.3166 124.971 20.7871 125.565 20.41C126.164 20.0329 126.859 19.8442 127.651 19.8442C128.443 19.8442 129.137 20.0329 129.732 20.41C130.329 20.7871 130.794 21.3166 131.126 21.9986C131.46 22.6806 131.628 23.4786 131.628 24.393C131.628 25.2996 131.46 26.092 131.126 26.7702C130.794 27.4483 130.329 27.976 129.732 28.3531C129.137 28.7302 128.443 28.9188 127.651 28.9188ZM127.651 27.7073C128.253 27.7073 128.748 27.5531 129.137 27.2445C129.526 26.9358 129.813 26.5302 129.999 26.0273C130.187 25.5245 130.28 24.9796 130.28 24.393C130.28 23.8063 130.187 23.2596 129.999 22.7529C129.813 22.2462 129.526 21.8366 129.137 21.5243C128.748 21.2119 128.253 21.0557 127.651 21.0557C127.049 21.0557 126.553 21.2119 126.165 21.5243C125.776 21.8366 125.489 22.2462 125.303 22.7529C125.116 23.2596 125.022 23.8063 125.022 24.393C125.022 24.9796 125.116 25.5245 125.303 26.0273C125.489 26.5302 125.776 26.9358 126.165 27.2445C126.553 27.5531 127.049 27.7073 127.651 27.7073ZM133.687 28.736V19.9585H135.035V28.736H133.687ZM134.373 18.4956C134.11 18.4956 133.883 18.4061 133.693 18.227C133.506 18.048 133.413 17.8327 133.413 17.5814C133.413 17.3299 133.506 17.1146 133.693 16.9356C133.883 16.7565 134.11 16.667 134.373 16.667C134.635 16.667 134.86 16.7565 135.047 16.9356C135.237 17.1146 135.333 17.3299 135.333 17.5814C135.333 17.8327 135.237 18.048 135.047 18.227C134.86 18.4061 134.635 18.4956 134.373 18.4956ZM140.82 28.9188C140.089 28.9188 139.443 28.734 138.883 28.3645C138.322 27.9911 137.884 27.4654 137.568 26.7873C137.252 26.1054 137.094 25.2996 137.094 24.3701C137.094 23.4481 137.252 22.6481 137.568 21.97C137.884 21.2919 138.325 20.768 138.889 20.3985C139.452 20.0291 140.104 19.8442 140.843 19.8442C141.414 19.8442 141.866 19.9395 142.197 20.13C142.533 20.3166 142.788 20.53 142.963 20.77C143.142 21.0062 143.281 21.2004 143.38 21.3529H143.495V17.0327H144.843V28.736H143.54V27.3873H143.38C143.281 27.5473 143.14 27.7493 142.957 27.9931C142.774 28.2331 142.513 28.4484 142.174 28.6388C141.835 28.8255 141.383 28.9188 140.82 28.9188ZM141.003 27.7073C141.544 27.7073 142.001 27.5664 142.374 27.2845C142.748 26.9987 143.032 26.6045 143.226 26.1016C143.42 25.5949 143.518 25.0101 143.518 24.3472C143.518 23.6919 143.422 23.1186 143.232 22.6272C143.041 22.1319 142.759 21.7471 142.386 21.4729C142.012 21.1948 141.551 21.0557 141.003 21.0557C140.432 21.0557 139.956 21.2024 139.574 21.4957C139.197 21.7853 138.913 22.1795 138.722 22.6786C138.536 23.1739 138.443 23.7301 138.443 24.3472C138.443 24.972 138.538 25.5396 138.728 26.0502C138.922 26.5569 139.209 26.9607 139.586 27.2616C139.967 27.5588 140.438 27.7073 141.003 27.7073Z" fill="#1D1D1D"/>
</svg>
