<svg width="201" height="48" viewBox="0 0 201 48" fill="none" xmlns="http://www.w3.org/2000/svg">
<g clip-path="url(#clip0_287_1337)">
<path d="M192.408 1.14258H8.59249C4.12313 1.14258 0.5 4.76571 0.5 9.23506V39.2929C0.5 43.7622 4.12313 47.3854 8.59249 47.3854H192.408C196.877 47.3854 200.5 43.7622 200.5 39.2929V9.23506C200.5 4.76571 196.877 1.14258 192.408 1.14258Z" fill="white"/>
<path d="M51.8717 23.2347L42.9017 12.7414L54.3143 20.385L51.8717 23.2347ZM40.5607 12.125C40.0324 12.4474 39.6787 13.0354 39.6787 13.7988V34.7239C39.6787 35.4873 40.0324 36.0753 40.5607 36.3977L50.9897 24.259L40.5607 12.125ZM57.8421 22.8222L55.4482 21.2053L52.778 24.2637L55.4482 27.3221L57.8909 25.7052C58.6224 25.0271 58.6224 23.5003 57.8421 22.8222ZM42.9017 35.786L54.3143 28.1425L51.8717 25.2926L42.9017 35.786Z" fill="#1D1D1D"/>
<path d="M80.4922 21.9516C80.3657 21.5646 80.199 21.2179 79.9922 20.9113C79.7891 20.601 79.5457 20.3366 79.2623 20.1181C78.9825 19.8997 78.6645 19.733 78.3082 19.6181C77.9517 19.5032 77.561 19.4457 77.1357 19.4457C76.4383 19.4457 75.8041 19.6257 75.2332 19.9859C74.6623 20.3462 74.2083 20.8768 73.871 21.578C73.5338 22.2792 73.3653 23.1394 73.3653 24.1587C73.3653 25.1779 73.5358 26.0381 73.8768 26.7392C74.2179 27.4405 74.6795 27.9711 75.2619 28.3313C75.8443 28.6915 76.4996 28.8716 77.2276 28.8716C77.902 28.8716 78.4959 28.7279 79.0093 28.4405C79.5266 28.1493 79.929 27.7394 80.2162 27.2106C80.5075 26.678 80.6531 26.0515 80.6531 25.3311L81.0899 25.4231H77.5494V24.1587H82.0325V25.4231C82.0325 26.3925 81.8256 27.2354 81.4117 27.952C81.0018 28.6685 80.4347 29.2241 79.7105 29.6188C78.9901 30.0096 78.1625 30.205 77.2276 30.205C76.1854 30.205 75.2697 29.9598 74.4803 29.4693C73.6947 28.9789 73.0817 28.2816 72.6411 27.3773C72.2042 26.473 71.9858 25.4 71.9858 24.1587C71.9858 23.2276 72.1103 22.3903 72.3595 21.647C72.6123 20.8998 72.9687 20.2637 73.4285 19.7388C73.8883 19.2138 74.4324 18.8115 75.0608 18.5318C75.6892 18.2521 76.3808 18.1123 77.1357 18.1123C77.7564 18.1123 78.335 18.2062 78.8714 18.3939C79.4116 18.5779 79.8925 18.8403 80.314 19.1813C80.7394 19.5184 81.0937 19.9227 81.3773 20.394C81.6609 20.8614 81.8562 21.3806 81.9635 21.9516H80.4922ZM87.8762 30.228C87.0792 30.228 86.3801 30.0383 85.7784 29.659C85.1808 29.2797 84.7132 28.7489 84.376 28.067C84.0427 27.3849 83.876 26.5879 83.876 25.676C83.876 24.7563 84.0427 23.9537 84.376 23.2678C84.7132 22.5819 85.1808 22.0493 85.7784 21.67C86.3801 21.2906 87.0792 21.101 87.8762 21.101C88.6732 21.101 89.3706 21.2906 89.9684 21.67C90.57 22.0493 91.0374 22.5819 91.3708 23.2678C91.7079 23.9537 91.8766 24.7563 91.8766 25.676C91.8766 26.5879 91.7079 27.3849 91.3708 28.067C91.0374 28.7489 90.57 29.2797 89.9684 29.659C89.3706 30.0383 88.6732 30.228 87.8762 30.228ZM87.8762 29.0095C88.4817 29.0095 88.9798 28.8544 89.3706 28.544C89.7614 28.2336 90.0508 27.8255 90.2386 27.3197C90.4263 26.8139 90.5202 26.2661 90.5202 25.676C90.5202 25.0859 90.4263 24.536 90.2386 24.0264C90.0508 23.5168 89.7614 23.1049 89.3706 22.7907C88.9798 22.4766 88.4817 22.3195 87.8762 22.3195C87.2709 22.3195 86.7728 22.4766 86.3819 22.7907C85.9912 23.1049 85.7018 23.5168 85.5141 24.0264C85.3263 24.536 85.2324 25.0859 85.2324 25.676C85.2324 26.2661 85.3263 26.8139 85.5141 27.3197C85.7018 27.8255 85.9912 28.2336 86.3819 28.544C86.7728 28.8544 87.2709 29.0095 87.8762 29.0095ZM97.5335 30.228C96.7366 30.228 96.0373 30.0383 95.4357 29.659C94.838 29.2797 94.3705 28.7489 94.0332 28.067C93.6999 27.3849 93.5332 26.5879 93.5332 25.676C93.5332 24.7563 93.6999 23.9537 94.0332 23.2678C94.3705 22.5819 94.838 22.0493 95.4357 21.67C96.0373 21.2906 96.7366 21.101 97.5335 21.101C98.3305 21.101 99.0279 21.2906 99.6256 21.67C100.227 22.0493 100.695 22.5819 101.028 23.2678C101.365 23.9537 101.534 24.7563 101.534 25.676C101.534 26.5879 101.365 27.3849 101.028 28.067C100.695 28.7489 100.227 29.2797 99.6256 29.659C99.0279 30.0383 98.3305 30.228 97.5335 30.228ZM97.5335 29.0095C98.1389 29.0095 98.6371 28.8544 99.0279 28.544C99.4187 28.2336 99.708 27.8255 99.8958 27.3197C100.084 26.8139 100.177 26.2661 100.177 25.676C100.177 25.0859 100.084 24.536 99.8958 24.0264C99.708 23.5168 99.4187 23.1049 99.0279 22.7907C98.6371 22.4766 98.1389 22.3195 97.5335 22.3195C96.9282 22.3195 96.43 22.4766 96.0391 22.7907C95.6484 23.1049 95.359 23.5168 95.1713 24.0264C94.9835 24.536 94.8897 25.0859 94.8897 25.676C94.8897 26.2661 94.9835 26.8139 95.1713 27.3197C95.359 27.8255 95.6484 28.2336 96.0391 28.544C96.43 28.8544 96.9282 29.0095 97.5335 29.0095ZM107.168 33.5385C106.513 33.5385 105.949 33.4543 105.478 33.2857C105.007 33.1209 104.614 32.9025 104.3 32.6305C103.989 32.3622 103.742 32.0748 103.558 31.7684L104.639 31.0096C104.761 31.1706 104.917 31.3545 105.104 31.5614C105.292 31.7722 105.549 31.9542 105.875 32.1074C106.204 32.2646 106.635 32.3431 107.168 32.3431C107.881 32.3431 108.469 32.1707 108.932 31.8258C109.396 31.481 109.628 30.9406 109.628 30.205V28.4117H109.513C109.413 28.5728 109.271 28.772 109.087 29.0095C108.907 29.2433 108.647 29.4521 108.306 29.636C107.969 29.8161 107.513 29.9062 106.938 29.9062C106.225 29.9062 105.585 29.7375 105.018 29.4004C104.455 29.0632 104.009 28.5728 103.679 27.929C103.353 27.2853 103.19 26.5036 103.19 25.584C103.19 24.6797 103.35 23.8923 103.668 23.2218C103.986 22.5474 104.428 22.0263 104.995 21.6584C105.562 21.2868 106.218 21.101 106.961 21.101C107.536 21.101 107.992 21.1967 108.329 21.3884C108.67 21.5761 108.93 21.7907 109.11 22.0321C109.294 22.2696 109.436 22.465 109.536 22.6183H109.674V21.2159H110.984V30.2969C110.984 31.0557 110.812 31.6725 110.467 32.1477C110.126 32.6266 109.666 32.9772 109.087 33.1995C108.513 33.4255 107.873 33.5385 107.168 33.5385ZM107.122 28.6877C107.666 28.6877 108.126 28.5632 108.501 28.314C108.877 28.065 109.162 27.7068 109.358 27.2392C109.553 26.7718 109.651 26.2124 109.651 25.561C109.651 24.925 109.555 24.3636 109.363 23.877C109.172 23.3903 108.888 23.0092 108.513 22.7332C108.137 22.4574 107.674 22.3195 107.122 22.3195C106.547 22.3195 106.068 22.465 105.685 22.7562C105.306 23.0474 105.02 23.4383 104.829 23.9287C104.641 24.4192 104.547 24.9633 104.547 25.561C104.547 26.174 104.643 26.7162 104.834 27.1876C105.03 27.6551 105.317 28.0228 105.696 28.291C106.08 28.5554 106.555 28.6877 107.122 28.6877ZM114.823 18.2732V30.0441H113.467V18.2732H114.823ZM121.009 30.228C120.159 30.228 119.425 30.0403 118.808 29.6648C118.195 29.2854 117.722 28.7566 117.388 28.0784C117.058 27.3963 116.894 26.6033 116.894 25.699C116.894 24.7947 117.058 23.9977 117.388 23.308C117.722 22.6145 118.186 22.0742 118.779 21.6872C119.376 21.2963 120.075 21.101 120.871 21.101C121.331 21.101 121.786 21.1776 122.233 21.3308C122.682 21.4841 123.09 21.7332 123.457 22.0781C123.825 22.419 124.119 22.8711 124.337 23.4345C124.556 23.9977 124.664 24.6913 124.664 25.5151V26.0898H117.86V24.9173H123.285C123.285 24.4192 123.186 23.9747 122.987 23.5839C122.791 23.193 122.512 22.8846 122.147 22.6585C121.787 22.4324 121.361 22.3195 120.871 22.3195C120.331 22.3195 119.863 22.4536 119.469 22.7218C119.078 22.9862 118.778 23.331 118.566 23.7564C118.356 24.1817 118.25 24.6376 118.25 25.1242V25.9058C118.25 26.5725 118.365 27.1377 118.595 27.6014C118.83 28.0612 119.153 28.4117 119.567 28.6532C119.98 28.8907 120.461 29.0095 121.009 29.0095C121.366 29.0095 121.687 28.9597 121.975 28.86C122.267 28.7566 122.517 28.6034 122.728 28.4003C122.938 28.1933 123.101 27.9367 123.217 27.6301L124.527 27.998C124.389 28.4425 124.157 28.8332 123.831 29.1705C123.506 29.5039 123.104 29.7643 122.624 29.9521C122.145 30.136 121.606 30.228 121.009 30.228ZM131.464 30.0441V18.2732H135.441C136.365 18.2732 137.12 18.4398 137.706 18.7732C138.295 19.1027 138.732 19.5492 139.016 20.1124C139.3 20.6757 139.441 21.304 139.441 21.9976C139.441 22.6911 139.3 23.3214 139.016 23.8885C138.736 24.4555 138.304 24.9077 137.717 25.2449C137.131 25.5783 136.38 25.7449 135.464 25.7449H132.613V24.4805H135.418C136.05 24.4805 136.558 24.3713 136.942 24.1529C137.324 23.9345 137.602 23.6395 137.775 23.2678C137.951 22.8923 138.039 22.4688 138.039 21.9976C138.039 21.5263 137.951 21.1048 137.775 20.7331C137.602 20.3614 137.322 20.0702 136.936 19.8595C136.549 19.6449 136.035 19.5376 135.395 19.5376H132.89V30.0441H131.464ZM142.91 18.2732V30.0441H141.553V18.2732H142.91ZM147.993 30.251C147.433 30.251 146.925 30.1456 146.469 29.9348C146.013 29.7203 145.652 29.4118 145.383 29.0095C145.115 28.6034 144.981 28.1129 144.981 27.5382C144.981 27.0324 145.08 26.6224 145.279 26.3081C145.479 25.9902 145.745 25.7411 146.078 25.561C146.412 25.381 146.78 25.2469 147.182 25.1587C147.588 25.0668 147.996 24.9939 148.406 24.9403C148.943 24.8713 149.378 24.8196 149.71 24.7851C150.048 24.7468 150.293 24.6835 150.447 24.5954C150.604 24.5073 150.682 24.354 150.682 24.1357V24.0896C150.682 23.5226 150.527 23.0819 150.217 22.7677C149.91 22.4536 149.445 22.2965 148.82 22.2965C148.173 22.2965 147.664 22.4382 147.297 22.7218C146.929 23.0053 146.67 23.308 146.521 23.6299L145.233 23.1701C145.463 22.6336 145.769 22.216 146.153 21.9172C146.541 21.6144 146.961 21.4036 147.418 21.2849C147.877 21.1622 148.329 21.101 148.774 21.101C149.057 21.101 149.383 21.1354 149.751 21.2044C150.123 21.2695 150.48 21.4056 150.826 21.6125C151.174 21.8194 151.464 22.1317 151.693 22.5493C151.923 22.967 152.039 23.5264 152.039 24.2276V30.0441H150.682V28.8486H150.613C150.521 29.0402 150.368 29.2451 150.153 29.4636C149.939 29.682 149.654 29.8678 149.297 30.0211C148.941 30.1744 148.506 30.251 147.993 30.251ZM148.199 29.0325C148.736 29.0325 149.188 28.9271 149.556 28.7163C149.928 28.5057 150.208 28.2336 150.395 27.9003C150.587 27.5669 150.682 27.2163 150.682 26.8485V25.607C150.625 25.676 150.498 25.7392 150.302 25.7967C150.112 25.8503 149.889 25.8982 149.636 25.9404C149.387 25.9787 149.144 26.0131 148.906 26.0439C148.672 26.0707 148.483 26.0936 148.337 26.1128C147.984 26.1588 147.655 26.2335 147.349 26.3369C147.046 26.4366 146.801 26.5879 146.613 26.791C146.43 26.9902 146.337 27.2622 146.337 27.6071C146.337 28.0784 146.512 28.4347 146.86 28.6761C147.212 28.9137 147.658 29.0325 148.199 29.0325ZM155.072 33.3546C154.842 33.3546 154.636 33.3354 154.457 33.2972C154.277 33.2627 154.152 33.2281 154.083 33.1937L154.428 31.9982C154.758 32.0825 155.049 32.1132 155.301 32.0902C155.554 32.0672 155.779 31.9542 155.974 31.751C156.173 31.5518 156.356 31.228 156.52 30.7797L156.773 30.0901L153.508 21.2159H154.98L157.417 28.2508H157.508L159.945 21.2159H161.417L157.67 31.3315C157.501 31.7874 157.292 32.1649 157.043 32.4637C156.794 32.7665 156.505 32.9907 156.175 33.1362C155.849 33.2818 155.482 33.3546 155.072 33.3546Z" fill="#1D1D1D"/>
</g>
<defs>
<clipPath id="clip0_287_1337">
<rect width="200" height="47.3988" fill="white" transform="translate(0.5)"/>
</clipPath>
</defs>
</svg>
