<svg width="200" height="47" viewBox="0 0 200 47" fill="none" xmlns="http://www.w3.org/2000/svg">
<path d="M191.908 0H8.09249C3.62313 0 0 3.62313 0 8.09249V38.1503C0 42.6197 3.62313 46.2428 8.09249 46.2428H191.908C196.377 46.2428 200 42.6197 200 38.1503V8.09249C200 3.62313 196.377 0 191.908 0Z" fill="white"/>
<path d="M51.3717 22.0921L42.4017 11.5988L53.8143 19.2424L51.3717 22.0921ZM40.0607 10.9824C39.5324 11.3048 39.1787 11.8928 39.1787 12.6562V33.5813C39.1787 34.3447 39.5324 34.9327 40.0607 35.2551L50.4897 23.1164L40.0607 10.9824ZM57.3421 21.6796L54.9482 20.0628L52.278 23.1212L54.9482 26.1795L57.3909 24.5627C58.1224 23.8845 58.1224 22.3577 57.3421 21.6796ZM42.4017 34.6435L53.8143 26.9999L51.3717 24.1501L42.4017 34.6435Z" fill="#1D1D1D"/>
<path d="M79.9927 20.809C79.8662 20.422 79.6995 20.0753 79.4927 19.7687C79.2896 19.4584 79.0462 19.194 78.7627 18.9755C78.483 18.7571 78.1649 18.5904 77.8086 18.4755C77.4522 18.3606 77.0615 18.3031 76.6362 18.3031C75.9388 18.3031 75.3046 18.4831 74.7337 18.8434C74.1627 19.2036 73.7088 19.7342 73.3715 20.4354C73.0343 21.1367 72.8657 21.9968 72.8657 23.0161C72.8657 24.0353 73.0363 24.8955 73.3773 25.5967C73.7184 26.2979 74.18 26.8286 74.7624 27.1887C75.3448 27.5489 76.0001 27.729 76.7281 27.729C77.4025 27.729 77.9964 27.5853 78.5098 27.2979C79.0271 27.0067 79.4294 26.5968 79.7167 26.068C80.0079 25.5354 80.1536 24.9089 80.1536 24.1886L80.5904 24.2805H77.0499V23.0161H81.533V24.2805C81.533 25.25 81.3261 26.0928 80.9122 26.8094C80.5023 27.5259 79.9352 28.0815 79.2109 28.4762C78.4906 28.8671 77.663 29.0624 76.7281 29.0624C75.6859 29.0624 74.7701 28.8172 73.9808 28.3267C73.1952 27.8363 72.5822 27.139 72.1416 26.2347C71.7047 25.3304 71.4863 24.2575 71.4863 23.0161C71.4863 22.085 71.6108 21.2478 71.86 20.5044C72.1128 19.7572 72.4692 19.1212 72.929 18.5962C73.3888 18.0712 73.9329 17.6689 74.5612 17.3893C75.1897 17.1095 75.8812 16.9697 76.6362 16.9697C77.2569 16.9697 77.8355 17.0636 78.3719 17.2513C78.9121 17.4353 79.393 17.6977 79.8145 18.0387C80.2399 18.3759 80.5942 18.7801 80.8778 19.2515C81.1614 19.7189 81.3567 20.238 81.464 20.809H79.9927ZM87.3767 29.0854C86.5797 29.0854 85.8805 28.8957 85.2789 28.5164C84.6812 28.1371 84.2137 27.6064 83.8765 26.9244C83.5432 26.2423 83.3765 25.4453 83.3765 24.5334C83.3765 23.6138 83.5432 22.8111 83.8765 22.1252C84.2137 21.4393 84.6812 20.9067 85.2789 20.5274C85.8805 20.148 86.5797 19.9584 87.3767 19.9584C88.1737 19.9584 88.8711 20.148 89.4689 20.5274C90.0705 20.9067 90.5379 21.4393 90.8713 22.1252C91.2084 22.8111 91.3771 23.6138 91.3771 24.5334C91.3771 25.4453 91.2084 26.2423 90.8713 26.9244C90.5379 27.6064 90.0705 28.1371 89.4689 28.5164C88.8711 28.8957 88.1737 29.0854 87.3767 29.0854ZM87.3767 27.8669C87.9822 27.8669 88.4803 27.7118 88.8711 27.4014C89.2619 27.091 89.5513 26.6829 89.739 26.1771C89.9268 25.6713 90.0207 25.1235 90.0207 24.5334C90.0207 23.9434 89.9268 23.3934 89.739 22.8838C89.5513 22.3742 89.2619 21.9623 88.8711 21.6481C88.4803 21.334 87.9822 21.1769 87.3767 21.1769C86.7714 21.1769 86.2733 21.334 85.8824 21.6481C85.4917 21.9623 85.2023 22.3742 85.0145 22.8838C84.8268 23.3934 84.7329 23.9434 84.7329 24.5334C84.7329 25.1235 84.8268 25.6713 85.0145 26.1771C85.2023 26.6829 85.4917 27.091 85.8824 27.4014C86.2733 27.7118 86.7714 27.8669 87.3767 27.8669ZM97.034 29.0854C96.2371 29.0854 95.5378 28.8957 94.9362 28.5164C94.3385 28.1371 93.8709 27.6064 93.5337 26.9244C93.2004 26.2423 93.0337 25.4453 93.0337 24.5334C93.0337 23.6138 93.2004 22.8111 93.5337 22.1252C93.8709 21.4393 94.3385 20.9067 94.9362 20.5274C95.5378 20.148 96.2371 19.9584 97.034 19.9584C97.831 19.9584 98.5284 20.148 99.1261 20.5274C99.7277 20.9067 100.195 21.4393 100.529 22.1252C100.866 22.8111 101.034 23.6138 101.034 24.5334C101.034 25.4453 100.866 26.2423 100.529 26.9244C100.195 27.6064 99.7277 28.1371 99.1261 28.5164C98.5284 28.8957 97.831 29.0854 97.034 29.0854ZM97.034 27.8669C97.6394 27.8669 98.1375 27.7118 98.5284 27.4014C98.9192 27.091 99.2085 26.6829 99.3963 26.1771C99.584 25.6713 99.6779 25.1235 99.6779 24.5334C99.6779 23.9434 99.584 23.3934 99.3963 22.8838C99.2085 22.3742 98.9192 21.9623 98.5284 21.6481C98.1375 21.334 97.6394 21.1769 97.034 21.1769C96.4286 21.1769 95.9305 21.334 95.5396 21.6481C95.1489 21.9623 94.8595 22.3742 94.6718 22.8838C94.484 23.3934 94.3901 23.9434 94.3901 24.5334C94.3901 25.1235 94.484 25.6713 94.6718 26.1771C94.8595 26.6829 95.1489 27.091 95.5396 27.4014C95.9305 27.7118 96.4286 27.8669 97.034 27.8669ZM106.668 32.396C106.013 32.396 105.45 32.3117 104.978 32.1431C104.507 31.9783 104.114 31.7599 103.8 31.4879C103.49 31.2197 103.243 30.9323 103.059 30.6258L104.139 29.8671C104.262 30.028 104.417 30.2119 104.605 30.4189C104.793 30.6296 105.049 30.8116 105.375 30.9649C105.705 31.122 106.136 31.2005 106.668 31.2005C107.381 31.2005 107.969 31.0281 108.433 30.6832C108.896 30.3384 109.128 29.798 109.128 29.0624V27.2691H109.013C108.914 27.4302 108.772 27.6294 108.588 27.8669C108.408 28.1007 108.147 28.3095 107.806 28.4934C107.469 28.6735 107.013 28.7636 106.438 28.7636C105.726 28.7636 105.086 28.5949 104.519 28.2578C103.955 27.9206 103.509 27.4302 103.18 26.7864C102.854 26.1427 102.691 25.3611 102.691 24.4414C102.691 23.5371 102.85 22.7497 103.168 22.0792C103.486 21.4049 103.929 20.8837 104.496 20.5159C105.063 20.1442 105.718 19.9584 106.461 19.9584C107.036 19.9584 107.492 20.0541 107.829 20.2458C108.17 20.4335 108.431 20.6481 108.611 20.8895C108.795 21.1271 108.937 21.3224 109.036 21.4757H109.174V20.0733H110.485V29.1543C110.485 29.9131 110.312 30.53 109.967 31.0051C109.626 31.4841 109.167 31.8346 108.588 32.0569C108.013 32.2829 107.373 32.396 106.668 32.396ZM106.622 27.5451C107.166 27.5451 107.626 27.4206 108.002 27.1715C108.377 26.9224 108.663 26.5642 108.858 26.0967C109.053 25.6293 109.151 25.0698 109.151 24.4184C109.151 23.7824 109.055 23.2211 108.864 22.7345C108.672 22.2478 108.389 21.8666 108.013 21.5907C107.638 21.3148 107.174 21.1769 106.622 21.1769C106.047 21.1769 105.569 21.3224 105.185 21.6137C104.806 21.9049 104.521 22.2957 104.329 22.7861C104.141 23.2767 104.047 23.8207 104.047 24.4184C104.047 25.0315 104.143 25.5737 104.335 26.045C104.53 26.5125 104.818 26.8802 105.197 27.1485C105.58 27.4128 106.055 27.5451 106.622 27.5451ZM114.324 17.1307V28.9015H112.967V17.1307H114.324ZM120.509 29.0854C119.66 29.0854 118.925 28.8977 118.308 28.5222C117.695 28.1428 117.223 27.614 116.888 26.9359C116.559 26.2538 116.395 25.4607 116.395 24.5564C116.395 23.6522 116.559 22.8552 116.888 22.1654C117.223 21.4719 117.686 20.9316 118.279 20.5446C118.877 20.1538 119.575 19.9584 120.372 19.9584C120.832 19.9584 121.286 20.035 121.734 20.1882C122.182 20.3415 122.59 20.5907 122.958 20.9355C123.325 21.2764 123.619 21.7286 123.838 22.2919C124.056 22.8552 124.165 23.5487 124.165 24.3725V24.9472H117.36V23.7747H122.786C122.786 23.2767 122.686 22.8322 122.487 22.4413C122.292 22.0504 122.012 21.742 121.648 21.516C121.287 21.2898 120.862 21.1769 120.372 21.1769C119.832 21.1769 119.364 21.311 118.969 21.5792C118.579 21.8436 118.278 22.1885 118.066 22.6138C117.856 23.0391 117.751 23.495 117.751 23.9816V24.7633C117.751 25.43 117.865 25.9952 118.095 26.4589C118.33 26.9186 118.654 27.2691 119.068 27.5106C119.48 27.7481 119.961 27.8669 120.509 27.8669C120.866 27.8669 121.188 27.8171 121.476 27.7175C121.767 27.614 122.018 27.4608 122.228 27.2577C122.439 27.0508 122.602 26.7941 122.717 26.4875L124.027 26.8554C123.89 27.2999 123.657 27.6906 123.331 28.0279C123.006 28.3613 122.604 28.6217 122.124 28.8095C121.646 28.9934 121.107 29.0854 120.509 29.0854ZM130.965 28.9015V17.1307H134.942C135.865 17.1307 136.62 17.2972 137.206 17.6307C137.796 17.9601 138.233 18.4066 138.516 18.9698C138.801 19.5331 138.942 20.1614 138.942 20.855C138.942 21.5486 138.801 22.1789 138.516 22.7459C138.236 23.313 137.804 23.7651 137.218 24.1023C136.632 24.4357 135.88 24.6023 134.965 24.6023H132.114V23.3379H134.918C135.551 23.3379 136.058 23.2287 136.442 23.0103C136.825 22.7919 137.102 22.4969 137.276 22.1252C137.451 21.7497 137.539 21.3263 137.539 20.855C137.539 20.3837 137.451 19.9622 137.276 19.5905C137.102 19.2189 136.823 18.9276 136.436 18.7169C136.049 18.5023 135.536 18.395 134.895 18.395H132.39V28.9015H130.965ZM142.411 17.1307V28.9015H141.054V17.1307H142.411ZM147.493 29.1085C146.934 29.1085 146.426 29.003 145.969 28.7923C145.514 28.5777 145.152 28.2693 144.884 27.8669C144.616 27.4608 144.481 26.9703 144.481 26.3956C144.481 25.8898 144.581 25.4798 144.78 25.1656C144.98 24.8476 145.246 24.5985 145.579 24.4184C145.913 24.2384 146.28 24.1043 146.683 24.0161C147.088 23.9242 147.497 23.8513 147.907 23.7977C148.443 23.7287 148.878 23.677 149.211 23.6426C149.549 23.6042 149.794 23.5409 149.947 23.4528C150.105 23.3648 150.182 23.2115 150.182 22.9931V22.9471C150.182 22.38 150.027 21.9393 149.717 21.6251C149.411 21.311 148.945 21.1539 148.321 21.1539C147.673 21.1539 147.165 21.2956 146.797 21.5792C146.429 21.8627 146.17 22.1654 146.021 22.4873L144.734 22.0275C144.964 21.491 145.27 21.0734 145.654 20.7746C146.041 20.4718 146.462 20.2611 146.918 20.1423C147.377 20.0197 147.829 19.9584 148.275 19.9584C148.558 19.9584 148.884 19.9928 149.251 20.0619C149.624 20.127 149.981 20.263 150.327 20.47C150.675 20.6768 150.965 20.9891 151.194 21.4067C151.424 21.8244 151.539 22.3838 151.539 23.085V28.9015H150.182V27.706H150.114C150.021 27.8976 149.869 28.1026 149.654 28.3211C149.44 28.5394 149.154 28.7252 148.797 28.8785C148.441 29.0318 148.006 29.1085 147.493 29.1085ZM147.7 27.89C148.236 27.89 148.688 27.7845 149.056 27.5738C149.428 27.3631 149.708 27.091 149.895 26.7577C150.087 26.4243 150.182 26.0738 150.182 25.7059V24.4644C150.125 24.5334 149.998 24.5967 149.803 24.6541C149.612 24.7078 149.389 24.7556 149.137 24.7978C148.887 24.8361 148.644 24.8705 148.406 24.9013C148.173 24.9281 147.983 24.951 147.838 24.9702C147.485 25.0162 147.155 25.0909 146.849 25.1944C146.546 25.294 146.301 25.4453 146.114 25.6485C145.93 25.8476 145.838 26.1197 145.838 26.4645C145.838 26.9359 146.012 27.2922 146.36 27.5335C146.713 27.7711 147.159 27.89 147.7 27.89ZM154.573 32.212C154.343 32.212 154.137 32.1928 153.958 32.1546C153.777 32.1201 153.653 32.0856 153.583 32.0511L153.929 30.8556C154.258 30.9399 154.55 30.9706 154.802 30.9476C155.055 30.9246 155.279 30.8116 155.475 30.6085C155.673 30.4093 155.856 30.0854 156.02 29.6371L156.273 28.9475L153.009 20.0733H154.48L156.917 27.1082H157.009L159.446 20.0733H160.917L157.17 30.1889C157.002 30.6449 156.792 31.0223 156.544 31.3212C156.294 31.6239 156.005 31.8481 155.676 31.9937C155.35 32.1392 154.982 32.212 154.573 32.212Z" fill="#1D1D1D"/>
</svg>
