<svg width="146" height="40" viewBox="0 0 146 40" fill="none" xmlns="http://www.w3.org/2000/svg">
<path d="M62.2271 20.6682C62.2375 19.8634 62.4513 19.0742 62.8486 18.3741C63.2459 17.6741 63.8139 17.0859 64.4996 16.6644C64.0639 16.0422 63.4893 15.5303 62.8212 15.169C62.153 14.8079 61.4099 14.6074 60.6508 14.5837C59.0315 14.4137 57.4616 15.5527 56.6365 15.5527C55.7953 15.5527 54.5248 14.6006 53.1567 14.6287C52.2718 14.6573 51.4094 14.9147 50.6535 15.3756C49.8975 15.8366 49.274 16.4856 48.8434 17.2592C46.9785 20.4882 48.3696 25.2336 50.1561 27.8436C51.0499 29.1217 52.0945 30.5493 53.4614 30.4987C54.799 30.4432 55.2985 29.6457 56.913 29.6457C58.5126 29.6457 58.9813 30.4987 60.3759 30.4665C61.8112 30.4432 62.7155 29.1828 63.5779 27.8926C64.2201 26.9819 64.7143 25.9755 65.0422 24.9105C64.2083 24.5578 63.4967 23.9675 62.9961 23.2131C62.4956 22.4587 62.228 21.5736 62.2271 20.6682Z" fill="white"/>
<path d="M59.5924 12.8661C60.375 11.9267 60.7606 10.7191 60.6672 9.5C59.4716 9.62557 58.3672 10.197 57.5741 11.1004C57.1863 11.5417 56.8893 12.0552 56.7001 12.6113C56.5108 13.1675 56.4331 13.7556 56.4711 14.3418C57.0692 14.348 57.6608 14.2183 58.2015 13.9627C58.7421 13.7071 59.2177 13.3321 59.5924 12.8661Z" fill="white"/>
<path d="M76.1161 25V17.3636H77.2893V25H76.1161ZM76.7126 16.0909C76.484 16.0909 76.2867 16.013 76.121 15.8572C75.9586 15.7015 75.8774 15.5142 75.8774 15.2955C75.8774 15.0767 75.9586 14.8894 76.121 14.7337C76.2867 14.5779 76.484 14.5 76.7126 14.5C76.9413 14.5 77.1369 14.5779 77.2993 14.7337C77.465 14.8894 77.5479 15.0767 77.5479 15.2955C77.5479 15.5142 77.465 15.7015 77.2993 15.8572C77.1369 16.013 76.9413 16.0909 76.7126 16.0909ZM88.1883 19.9091C88.1883 20.983 87.9944 21.911 87.6066 22.6932C87.2189 23.4754 86.6869 24.0786 86.0108 24.5028C85.3346 24.9271 84.5624 25.1392 83.694 25.1392C82.8256 25.1392 82.0534 24.9271 81.3772 24.5028C80.7011 24.0786 80.1691 23.4754 79.7814 22.6932C79.3936 21.911 79.1997 20.983 79.1997 19.9091C79.1997 18.8352 79.3936 17.9072 79.7814 17.125C80.1691 16.3428 80.7011 15.7396 81.3772 15.3153C82.0534 14.8911 82.8256 14.679 83.694 14.679C84.5624 14.679 85.3346 14.8911 86.0108 15.3153C86.6869 15.7396 87.2189 16.3428 87.6066 17.125C87.9944 17.9072 88.1883 18.8352 88.1883 19.9091ZM86.9951 19.9091C86.9951 19.0275 86.8476 18.2834 86.5527 17.6768C86.261 17.0703 85.8649 16.6113 85.3645 16.2997C84.8673 15.9882 84.3105 15.8324 83.694 15.8324C83.0775 15.8324 82.519 15.9882 82.0186 16.2997C81.5214 16.6113 81.1253 17.0703 80.8304 17.6768C80.5387 18.2834 80.3929 19.0275 80.3929 19.9091C80.3929 20.7907 80.5387 21.5348 80.8304 22.1413C81.1253 22.7479 81.5214 23.2069 82.0186 23.5185C82.519 23.83 83.0775 23.9858 83.694 23.9858C84.3105 23.9858 84.8673 23.83 85.3645 23.5185C85.8649 23.2069 86.261 22.7479 86.5527 22.1413C86.8476 21.5348 86.9951 20.7907 86.9951 19.9091ZM95.8297 17.3636C95.77 16.8598 95.528 16.4688 95.1038 16.1903C94.6796 15.9119 94.1592 15.7727 93.5427 15.7727C93.092 15.7727 92.6976 15.8456 92.3595 15.9915C92.0247 16.1373 91.7629 16.3378 91.574 16.593C91.3884 16.8482 91.2956 17.1383 91.2956 17.4631C91.2956 17.7348 91.3602 17.9685 91.4895 18.1641C91.622 18.3563 91.7911 18.517 91.9966 18.6463C92.2021 18.7723 92.4175 18.8767 92.6429 18.9595C92.8682 19.0391 93.0754 19.1037 93.2643 19.1534L94.2984 19.4318C94.5636 19.5014 94.8585 19.5975 95.1833 19.7202C95.5115 19.8428 95.8247 20.0102 96.123 20.2223C96.4246 20.4311 96.6732 20.6996 96.8687 21.0277C97.0643 21.3558 97.162 21.7585 97.162 22.2358C97.162 22.786 97.0179 23.2831 96.7295 23.7273C96.4445 24.1714 96.0269 24.5244 95.4767 24.7862C94.9298 25.0481 94.2653 25.179 93.4831 25.179C92.7539 25.179 92.1225 25.0613 91.5889 24.826C91.0586 24.5907 90.641 24.2625 90.336 23.8416C90.0344 23.4207 89.8637 22.9318 89.824 22.375H91.0967C91.1298 22.7595 91.2591 23.0777 91.4845 23.3295C91.7132 23.5781 92.0015 23.7637 92.3495 23.8864C92.7009 24.0057 93.0787 24.0653 93.4831 24.0653C93.9537 24.0653 94.3763 23.9891 94.7508 23.8366C95.1253 23.6809 95.422 23.4654 95.6407 23.1903C95.8595 22.9119 95.9689 22.5871 95.9689 22.2159C95.9689 21.8778 95.8744 21.6027 95.6855 21.3906C95.4966 21.1785 95.248 21.0062 94.9397 20.8736C94.6315 20.741 94.2984 20.625 93.9405 20.5256L92.6876 20.1676C91.8922 19.9389 91.2624 19.6125 90.7984 19.1882C90.3344 18.764 90.1024 18.2088 90.1024 17.5227C90.1024 16.9527 90.2565 16.4555 90.5647 16.0312C90.8763 15.6037 91.2939 15.2723 91.8176 15.0369C92.3446 14.7983 92.9329 14.679 93.5825 14.679C94.2387 14.679 94.8221 14.7966 95.3325 15.032C95.8429 15.264 96.2473 15.5821 96.5456 15.9865C96.8472 16.3909 97.0063 16.8499 97.0228 17.3636H95.8297Z" fill="white"/>
<rect x="1" y="0.5" width="144" height="39" rx="6.5" stroke="white"/>
</svg>
