<svg width="146" height="40" viewBox="0 0 146 40" fill="none" xmlns="http://www.w3.org/2000/svg">
<path d="M59.2273 20.6682C59.2377 19.8634 59.4515 19.0742 59.8488 18.3741C60.2461 17.6741 60.814 17.0859 61.4998 16.6644C61.0641 16.0422 60.4895 15.5303 59.8214 15.169C59.1532 14.8079 58.4101 14.6074 57.651 14.5837C56.0317 14.4137 54.4618 15.5527 53.6366 15.5527C52.7955 15.5527 51.525 14.6006 50.1569 14.6287C49.272 14.6573 48.4096 14.9147 47.6536 15.3756C46.8977 15.8366 46.2742 16.4856 45.8436 17.2592C43.9786 20.4882 45.3698 25.2336 47.1563 27.8436C48.0501 29.1217 49.0947 30.5493 50.4615 30.4987C51.7991 30.4432 52.2987 29.6457 53.9132 29.6457C55.5128 29.6457 55.9815 30.4987 57.3761 30.4665C58.8114 30.4432 59.7157 29.1828 60.5781 27.8926C61.2203 26.9819 61.7145 25.9755 62.0424 24.9105C61.2085 24.5578 60.4969 23.9675 59.9963 23.2131C59.4957 22.4587 59.2282 21.5736 59.2273 20.6682Z" fill="white"/>
<path d="M56.5926 12.8661C57.3752 11.9267 57.7608 10.7191 57.6674 9.5C56.4718 9.62557 55.3674 10.197 54.5743 11.1004C54.1865 11.5417 53.8895 12.0552 53.7003 12.6113C53.511 13.1675 53.4332 13.7556 53.4713 14.3418C54.0694 14.348 54.661 14.2183 55.2017 13.9627C55.7423 13.7071 56.2179 13.3321 56.5926 12.8661Z" fill="white"/>
<path d="M73.2749 14.8182H74.7465L78.2068 23.2699H78.3261L81.7863 14.8182H83.2579V25H82.1045V17.2642H82.0051L78.8232 25H77.7096L74.5278 17.2642H74.4284V25H73.2749V14.8182ZM87.8181 25.179C87.3342 25.179 86.895 25.0878 86.5006 24.9055C86.1062 24.7199 85.793 24.4531 85.561 24.1051C85.329 23.7538 85.213 23.3295 85.213 22.8324C85.213 22.3949 85.2992 22.0402 85.4715 21.7685C85.6439 21.4934 85.8742 21.2779 86.1626 21.1222C86.4509 20.9664 86.7691 20.8504 87.1171 20.7741C87.4684 20.6946 87.8214 20.6316 88.176 20.5852C88.6401 20.5256 89.0162 20.4808 89.3046 20.451C89.5963 20.4179 89.8084 20.3632 89.941 20.2869C90.0769 20.2107 90.1448 20.0781 90.1448 19.8892V19.8494C90.1448 19.3589 90.0106 18.9777 89.7421 18.706C89.4769 18.4342 89.0742 18.2983 88.534 18.2983C87.9739 18.2983 87.5347 18.4209 87.2165 18.6662C86.8983 18.9115 86.6746 19.1733 86.5454 19.4517L85.4317 19.054C85.6306 18.59 85.8957 18.2287 86.2272 17.9702C86.5619 17.7083 86.9265 17.526 87.3209 17.4233C87.7187 17.3172 88.1098 17.2642 88.4942 17.2642C88.7395 17.2642 89.0212 17.294 89.3394 17.3537C89.6609 17.41 89.9708 17.5277 90.2691 17.7067C90.5707 17.8857 90.8209 18.1558 91.0198 18.517C91.2187 18.8783 91.3181 19.3622 91.3181 19.9688V25H90.1448V23.9659H90.0851C90.0056 24.1316 89.873 24.3089 89.6874 24.4979C89.5018 24.6868 89.2549 24.8475 88.9466 24.9801C88.6384 25.1127 88.2622 25.179 87.8181 25.179ZM87.9971 24.125C88.4611 24.125 88.8522 24.0339 89.1704 23.8516C89.4919 23.6693 89.7338 23.4339 89.8962 23.1456C90.0619 22.8572 90.1448 22.554 90.1448 22.2358V21.1619C90.0951 21.2216 89.9857 21.2763 89.8167 21.326C89.651 21.3724 89.4587 21.4138 89.24 21.4503C89.0245 21.4834 88.8141 21.5133 88.6086 21.5398C88.4064 21.563 88.2423 21.5829 88.1164 21.5994C87.8115 21.6392 87.5264 21.7038 87.2613 21.7933C86.9994 21.8795 86.7873 22.0104 86.6249 22.1861C86.4658 22.3584 86.3863 22.5937 86.3863 22.892C86.3863 23.2997 86.5371 23.608 86.8387 23.8168C87.1436 24.0223 87.5297 24.125 87.9971 24.125ZM96.5619 25.1591C95.846 25.1591 95.2295 24.9901 94.7124 24.652C94.1954 24.3139 93.7977 23.8482 93.5193 23.255C93.2409 22.6617 93.1017 21.9839 93.1017 21.2216C93.1017 20.446 93.2442 19.7616 93.5292 19.1683C93.8176 18.5717 94.2186 18.1061 94.7323 17.7713C95.2494 17.4332 95.8526 17.2642 96.542 17.2642C97.0789 17.2642 97.5628 17.3636 97.9937 17.5625C98.4246 17.7614 98.7776 18.0398 99.0526 18.3977C99.3277 18.7557 99.4984 19.1733 99.5647 19.6506H98.3914C98.3019 19.3026 98.1031 18.9943 97.7948 18.7259C97.4899 18.4541 97.0789 18.3182 96.5619 18.3182C96.1045 18.3182 95.7035 18.4375 95.3588 18.6761C95.0174 18.9115 94.7506 19.2446 94.5583 19.6754C94.3694 20.103 94.2749 20.6051 94.2749 21.1818C94.2749 21.7718 94.3677 22.2855 94.5534 22.723C94.7423 23.1605 95.0074 23.5002 95.3488 23.7422C95.6935 23.9841 96.0979 24.1051 96.5619 24.1051C96.8668 24.1051 97.1436 24.0521 97.3921 23.946C97.6407 23.84 97.8512 23.6875 98.0235 23.4886C98.1959 23.2898 98.3185 23.0511 98.3914 22.7727H99.5647C99.4984 23.2235 99.3344 23.6295 99.0725 23.9908C98.814 24.3487 98.471 24.6338 98.0434 24.8459C97.6192 25.0547 97.1253 25.1591 96.5619 25.1591Z" fill="white"/>
<rect x="1" y="0.5" width="144" height="39" rx="6.5" stroke="white"/>
</svg>
