<svg width="200" height="47" viewBox="0 0 200 47" fill="none" xmlns="http://www.w3.org/2000/svg">
<path d="M8.09249 0.5H191.908C196.101 0.5 199.5 3.89927 199.5 8.09249V38.1503C199.5 42.3435 196.101 45.7428 191.908 45.7428H8.09249C3.89927 45.7428 0.5 42.3435 0.5 38.1503V8.09249C0.5 3.89927 3.89927 0.5 8.09249 0.5Z" stroke="white"/>
<path d="M54.8693 22.8931C54.8808 21.984 55.1186 21.0924 55.5604 20.3015C56.0023 19.5107 56.6339 18.8462 57.3966 18.3701C56.912 17.6672 56.273 17.0889 55.53 16.6807C54.7868 16.2728 53.9604 16.0463 53.1162 16.0195C51.3153 15.8275 49.5694 17.1142 48.6517 17.1142C47.7163 17.1142 46.3033 16.0386 44.7818 16.0704C43.7977 16.1027 42.8386 16.3935 41.9979 16.9141C41.1572 17.4349 40.4638 18.1681 39.9849 19.042C37.9108 22.6898 39.458 28.0506 41.4448 30.9991C42.4388 32.4429 43.6005 34.0557 45.1206 33.9985C46.6082 33.9358 47.1638 33.0349 48.9593 33.0349C50.7383 33.0349 51.2595 33.9985 52.8105 33.9621C54.4067 33.9358 55.4124 32.512 56.3715 31.0544C57.0857 30.0256 57.6353 28.8887 58 27.6856C57.0726 27.2872 56.2812 26.6203 55.7245 25.7681C55.1678 24.9158 54.8703 23.9159 54.8693 22.8931Z" fill="white"/>
<path d="M120.323 24.9027C120.146 24.9596 119.947 24.996 119.741 25.0205L119.736 25.0211C119.424 25.0549 119.014 25.1061 118.505 25.1749C118.13 25.2264 117.757 25.2963 117.385 25.3846L117.381 25.3855L117.381 25.3854C117.041 25.4638 116.736 25.5815 116.463 25.7362L116.463 25.7363C116.221 25.8732 116.03 26.0607 115.883 26.3062L115.882 26.3084C115.754 26.521 115.669 26.8335 115.669 27.2821C115.669 27.7821 115.779 28.1767 115.975 28.4891C116.181 28.8126 116.456 29.0593 116.809 29.2342C117.169 29.4085 117.577 29.5 118.042 29.5C118.483 29.5 118.823 29.4307 119.081 29.314L119.082 29.3139C119.302 29.2142 119.478 29.1043 119.615 28.9878C119.209 29.1884 118.745 29.2792 118.24 29.2792C117.647 29.2792 117.113 29.1418 116.673 28.8304L116.668 28.8268L116.668 28.8267C116.185 28.4759 115.963 27.9562 115.963 27.3512C115.963 26.9215 116.073 26.5188 116.351 26.2034L116.351 26.2032C116.594 25.9273 116.904 25.7312 117.263 25.6067C117.59 25.491 117.937 25.4089 118.303 25.3587L120.323 24.9027ZM120.323 24.9027L120.242 25.0057C120.217 25.0182 120.173 25.0368 120.103 25.0587C119.944 25.1053 119.753 25.1488 119.528 25.1883M120.323 24.9027L119.528 25.1883M119.528 25.1883C119.296 25.2256 119.071 25.2593 118.851 25.2891C118.628 25.3159 118.446 25.3392 118.304 25.3587L119.528 25.1883ZM125.952 21.8325L125.952 21.8329C125.468 22.1641 125.081 22.6291 124.797 23.2466C124.518 23.8573 124.371 24.5767 124.371 25.4165C124.371 26.2411 124.514 26.9548 124.788 27.5676C125.061 28.1783 125.443 28.6425 125.931 28.9774C126.406 29.304 126.984 29.4769 127.688 29.4769C128.243 29.4769 128.707 29.3692 129.092 29.1703C129.495 28.9603 129.809 28.6836 130.045 28.3404L130.046 28.3397C130.18 28.1448 130.287 27.9363 130.367 27.713H130.068C129.973 27.9493 129.846 28.1663 129.685 28.3606M125.952 21.8325L129.3 28.0422M125.952 21.8325C126.431 21.5038 126.996 21.333 127.666 21.333C128.192 21.333 128.65 21.4348 129.049 21.6284C129.453 21.8242 129.778 22.0944 130.032 22.4411L130.032 22.4411C130.176 22.6383 130.29 22.8562 130.373 23.0969H130.065C129.916 22.746 129.686 22.4329 129.387 22.1588C128.938 21.7393 128.352 21.5537 127.688 21.5537C127.086 21.5537 126.539 21.7206 126.067 22.0635C125.605 22.3978 125.259 22.8617 125.017 23.43L125.017 23.4318C124.777 24.0013 124.665 24.6515 124.665 25.3704C124.665 26.1024 124.774 26.7637 125.009 27.3428L125.01 27.3456C125.247 27.922 125.59 28.3941 126.051 28.737L126.053 28.7384C126.526 29.0873 127.078 29.2562 127.688 29.2562C128.086 29.2562 128.462 29.1832 128.808 29.0282M125.952 21.8325L128.603 28.5719M129.685 28.3606L129.3 28.0422M129.685 28.3606C129.685 28.3605 129.686 28.3604 129.686 28.3604L129.3 28.0422M129.685 28.3606C129.446 28.6505 129.152 28.8742 128.808 29.0282M129.3 28.0422C129.11 28.2725 128.878 28.4492 128.603 28.5719M128.808 29.0282L128.603 28.5719M128.808 29.0282C128.808 29.0282 128.808 29.0282 128.808 29.0283L128.603 28.5719M108.038 27.9705L111.731 18.5H112.512V29.2927H112.24V20.833V20.333H111.74H111.63H111.289L111.165 20.6506L107.779 29.2927H107.233L103.848 20.6506L103.723 20.333H103.382H103.272H102.772V20.833V29.2927H102.5V18.5H103.282L106.974 27.9705L107.099 28.2889H107.44H107.572H107.914L108.038 27.9705ZM116.103 22.6316C116.251 22.3846 116.419 22.1889 116.604 22.0376L116.605 22.037C116.923 21.7757 117.263 21.5988 117.626 21.4996L117.626 21.4996L117.629 21.4987C118.027 21.3872 118.413 21.333 118.788 21.333C119.018 21.333 119.295 21.3625 119.624 21.4272L119.624 21.4273L119.63 21.4284C119.917 21.4812 120.2 21.5924 120.48 21.7685L120.482 21.7698C120.725 21.9213 120.945 22.1604 121.131 22.5162C121.299 22.8366 121.403 23.3075 121.403 23.9655V29.2927H121.109V28.595V28.095H120.647C120.692 28.0269 120.735 27.9563 120.774 27.8831C120.995 27.4786 121.109 27.0458 121.109 26.5912V25.3473V23.912L121.108 23.9127C121.109 23.8996 121.109 23.8864 121.109 23.8733V23.8272C121.109 23.1736 120.937 22.5949 120.53 22.1614C120.111 21.7111 119.511 21.5307 118.832 21.5307C118.142 21.5307 117.532 21.6894 117.064 22.0682C116.807 22.2765 116.588 22.5029 116.416 22.7492L116.103 22.6316ZM130.494 27.213H131C130.976 27.3853 130.94 27.552 130.892 27.713L130.494 27.213Z" fill="white" stroke="white"/>
<path d="M51.71 13.4759C52.6375 12.5059 53.0944 11.2589 52.9837 10C51.5669 10.1297 50.2581 10.7197 49.3183 11.6526C48.8587 12.1083 48.5067 12.6386 48.2825 13.2128C48.0582 13.7872 47.966 14.3945 48.0112 14.9998C48.7199 15.0062 49.421 14.8723 50.0618 14.6083C50.7024 14.3444 51.266 13.9571 51.71 13.4759Z" fill="white"/>
</svg>
