<svg width="200" height="47" viewBox="0 0 200 47" fill="none" xmlns="http://www.w3.org/2000/svg">
<path d="M191.908 0H8.09249C3.62313 0 0 3.62313 0 8.09249V38.1503C0 42.6197 3.62313 46.2428 8.09249 46.2428H191.908C196.377 46.2428 200 42.6197 200 38.1503V8.09249C200 3.62313 196.377 0 191.908 0Z" fill="white"/>
<path d="M82.4493 23.8498C82.4635 22.7074 82.7549 21.5872 83.2964 20.5934C83.8379 19.5998 84.612 18.7648 85.5467 18.1665C84.9529 17.2833 84.1697 16.5567 83.259 16.0438C82.3483 15.5313 81.3354 15.2467 80.3008 15.213C78.0936 14.9717 75.9538 16.5885 74.8291 16.5885C73.6826 16.5885 71.9509 15.237 70.0862 15.2769C68.8801 15.3175 67.7046 15.6829 66.6742 16.3371C65.6438 16.9915 64.794 17.9127 64.2071 19.0108C61.6651 23.5943 63.5613 30.3303 65.9963 34.0351C67.2146 35.8493 68.6384 37.8757 70.5014 37.8039C72.3245 37.7251 73.0055 36.5931 75.2061 36.5931C77.3864 36.5931 78.0252 37.8039 79.9261 37.7582C81.8824 37.7251 83.115 35.936 84.2904 34.1046C85.1658 32.8119 85.8394 31.3834 86.2863 29.8716C85.1497 29.371 84.1798 28.5331 83.4974 27.4622C82.8151 26.3914 82.4505 25.135 82.4493 23.8498Z" fill="#1D1D1D"/>
<path d="M101.594 15.5469H103.6L108.316 27.5438H108.479L113.195 15.5469H115.201V29.9996H113.629V19.0189H113.493L109.156 29.9996H107.638L103.301 19.0189H103.166V29.9996H101.594V15.5469ZM121.416 30.2537C120.757 30.2537 120.158 30.1243 119.621 29.8655C119.083 29.6021 118.656 29.2233 118.34 28.7294C118.024 28.2307 117.866 27.6284 117.866 26.9228C117.866 26.3018 117.983 25.7983 118.218 25.4126C118.453 25.0221 118.767 24.7162 119.16 24.4952C119.553 24.2741 119.987 24.1094 120.461 24.0011C120.94 23.8883 121.421 23.7988 121.904 23.733C122.537 23.6484 123.049 23.5848 123.442 23.5425C123.84 23.4955 124.129 23.4178 124.31 23.3095C124.495 23.2014 124.588 23.0132 124.588 22.745V22.6885C124.588 21.9923 124.405 21.4512 124.039 21.0655C123.677 20.6797 123.128 20.4868 122.392 20.4868C121.629 20.4868 121.03 20.6608 120.596 21.009C120.163 21.3572 119.858 21.7288 119.682 22.124L118.164 21.5595C118.435 20.9008 118.796 20.388 119.248 20.021C119.704 19.6493 120.201 19.3905 120.739 19.2447C121.281 19.0941 121.814 19.0189 122.338 19.0189C122.672 19.0189 123.056 19.0612 123.49 19.1459C123.928 19.2259 124.351 19.3929 124.757 19.647C125.168 19.9011 125.509 20.2845 125.78 20.7972C126.051 21.3101 126.187 21.997 126.187 22.858V29.9996H124.588V28.5318H124.506C124.398 28.767 124.217 29.0187 123.964 29.2869C123.711 29.5551 123.375 29.7832 122.955 29.9714C122.534 30.1596 122.022 30.2537 121.416 30.2537ZM121.66 28.7576C122.293 28.7576 122.826 28.6283 123.26 28.3695C123.698 28.1108 124.027 27.7766 124.249 27.3674C124.475 26.958 124.588 26.5276 124.588 26.0759V24.5516C124.52 24.6363 124.371 24.714 124.14 24.7845C123.915 24.8504 123.653 24.9091 123.354 24.961C123.061 25.0079 122.774 25.0504 122.494 25.088C122.218 25.1209 121.995 25.1492 121.823 25.1726C121.407 25.2291 121.019 25.3208 120.657 25.4478C120.3 25.5702 120.011 25.756 119.79 26.0054C119.573 26.25 119.465 26.584 119.465 27.0074C119.465 27.5861 119.67 28.0237 120.081 28.3201C120.497 28.6118 121.023 28.7576 121.66 28.7576ZM133.334 30.2255C132.358 30.2255 131.518 29.9856 130.813 29.5057C130.109 29.0257 129.567 28.3647 129.187 27.5227C128.808 26.6805 128.618 25.7184 128.618 24.6363C128.618 23.5354 128.812 22.5639 129.201 21.7217C129.594 20.8749 130.14 20.214 130.841 19.7387C131.545 19.2588 132.367 19.0189 133.307 19.0189C134.039 19.0189 134.699 19.16 135.286 19.4423C135.873 19.7247 136.354 20.1198 136.729 20.6279C137.104 21.136 137.337 21.7288 137.427 22.4063H135.828C135.706 21.9124 135.435 21.4747 135.015 21.0937C134.599 20.7079 134.039 20.515 133.334 20.515C132.711 20.515 132.164 20.6844 131.694 21.0231C131.229 21.3572 130.865 21.83 130.603 22.4415C130.346 23.0485 130.217 23.7612 130.217 24.5798C130.217 25.4173 130.344 26.1465 130.597 26.7675C130.854 27.3885 131.215 27.8707 131.681 28.2142C132.151 28.5576 132.702 28.7294 133.334 28.7294C133.75 28.7294 134.127 28.6541 134.466 28.5035C134.805 28.3531 135.092 28.1366 135.326 27.8543C135.561 27.5721 135.729 27.2332 135.828 26.8381H137.427C137.337 27.478 137.113 28.0543 136.756 28.5671C136.404 29.0751 135.936 29.4798 135.354 29.7809C134.775 30.0773 134.102 30.2255 133.334 30.2255Z" fill="#1D1D1D"/>
<path d="M78.8541 12.7781C79.9208 11.4446 80.4464 9.73048 80.3191 8C78.6895 8.17824 77.1842 8.98937 76.1032 10.2717C75.5746 10.8981 75.1698 11.627 74.9119 12.4164C74.6539 13.2059 74.5478 14.0407 74.5997 14.8728C75.415 14.8816 76.2213 14.6975 76.9583 14.3347C77.6952 13.9719 78.3434 13.4396 78.8541 12.7781Z" fill="#1D1D1D"/>
</svg>
