<svg width="146" height="40" viewBox="0 0 146 40" fill="none" xmlns="http://www.w3.org/2000/svg">
<path d="M37.7296 11.2315V19.1343H45.8125V9.5L37.7296 11.2315ZM37.7296 28.7986L45.8125 30.5V20.8712H37.7296V28.7986ZM29.1875 19.1315H36.0199V11.5188L29.1875 12.9822V19.1315ZM29.1875 27.0753L36.0199 28.5141V20.8712H29.1875V27.0753Z" fill="white"/>
<path d="M58.8949 25L56.1108 14.8182H57.3636L59.4915 23.1108H59.5909L61.7585 14.8182H63.1506L65.3182 23.1108H65.4176L67.5455 14.8182H68.7983L66.0142 25H64.7415L62.4943 16.8864H62.4148L60.1676 25H58.8949ZM70.1754 25V17.3636H71.3487V25H70.1754ZM70.772 16.0909C70.5433 16.0909 70.3461 16.013 70.1804 15.8572C70.018 15.7015 69.9368 15.5142 69.9368 15.2955C69.9368 15.0767 70.018 14.8894 70.1804 14.7337C70.3461 14.5779 70.5433 14.5 70.772 14.5C71.0007 14.5 71.1963 14.5779 71.3587 14.7337C71.5244 14.8894 71.6072 15.0767 71.6072 15.2955C71.6072 15.5142 71.5244 15.7015 71.3587 15.8572C71.1963 16.013 71.0007 16.0909 70.772 16.0909ZM74.671 20.4062V25H73.4977V17.3636H74.6312V18.5568H74.7306C74.9096 18.169 75.1814 17.8575 75.546 17.6222C75.9106 17.3835 76.3812 17.2642 76.9579 17.2642C77.475 17.2642 77.9274 17.3703 78.3152 17.5824C78.7029 17.7912 79.0046 18.1094 79.22 18.5369C79.4354 18.9612 79.5431 19.4981 79.5431 20.1477V25H78.3699V20.2273C78.3699 19.6274 78.2141 19.16 77.9025 18.8253C77.591 18.4872 77.1634 18.3182 76.6199 18.3182C76.2453 18.3182 75.9106 18.3994 75.6156 18.5618C75.3239 18.7242 75.0936 18.9612 74.9245 19.2727C74.7555 19.5843 74.671 19.9621 74.671 20.4062ZM84.5707 25.1591C83.9343 25.1591 83.3725 24.9983 82.8853 24.6768C82.3981 24.352 82.0169 23.8946 81.7418 23.3047C81.4667 22.7114 81.3292 22.0104 81.3292 21.2017C81.3292 20.3996 81.4667 19.7036 81.7418 19.1136C82.0169 18.5237 82.3997 18.0679 82.8903 17.7464C83.3808 17.425 83.9476 17.2642 84.5906 17.2642C85.0877 17.2642 85.4805 17.3471 85.7688 17.5128C86.0605 17.6752 86.2826 17.8608 86.435 18.0696C86.5908 18.2751 86.7118 18.4441 86.7979 18.5767H86.8974V14.8182H88.0707V25H86.9371V23.8267H86.7979C86.7118 23.9659 86.5891 24.1416 86.43 24.3537C86.271 24.5625 86.0439 24.7498 85.7489 24.9155C85.454 25.0779 85.0612 25.1591 84.5707 25.1591ZM84.7298 24.1051C85.2004 24.1051 85.5981 23.9825 85.9229 23.7372C86.2478 23.4886 86.4947 23.1456 86.6637 22.7081C86.8327 22.2673 86.9173 21.7585 86.9173 21.1818C86.9173 20.6117 86.8344 20.1129 86.6687 19.6854C86.503 19.2545 86.2577 18.9197 85.9329 18.6811C85.6081 18.4392 85.207 18.3182 84.7298 18.3182C84.2326 18.3182 83.8183 18.4458 83.4869 18.701C83.1587 18.9529 82.9118 19.2959 82.7461 19.7301C82.5837 20.161 82.5025 20.6449 82.5025 21.1818C82.5025 21.7254 82.5853 22.2192 82.7511 22.6634C82.9201 23.1042 83.1687 23.4555 83.4968 23.7173C83.8282 23.9759 84.2392 24.1051 84.7298 24.1051ZM93.4847 25.1591C92.7953 25.1591 92.1905 24.995 91.6701 24.6669C91.1531 24.3388 90.7487 23.8797 90.457 23.2898C90.1687 22.6998 90.0245 22.0104 90.0245 21.2216C90.0245 20.4261 90.1687 19.7318 90.457 19.1385C90.7487 18.5452 91.1531 18.0845 91.6701 17.7564C92.1905 17.4283 92.7953 17.2642 93.4847 17.2642C94.1741 17.2642 94.7773 17.4283 95.2944 17.7564C95.8147 18.0845 96.2191 18.5452 96.5075 19.1385C96.7991 19.7318 96.945 20.4261 96.945 21.2216C96.945 22.0104 96.7991 22.6998 96.5075 23.2898C96.2191 23.8797 95.8147 24.3388 95.2944 24.6669C94.7773 24.995 94.1741 25.1591 93.4847 25.1591ZM93.4847 24.1051C94.0084 24.1051 94.4393 23.9709 94.7773 23.7024C95.1154 23.4339 95.3656 23.081 95.5281 22.6435C95.6905 22.206 95.7717 21.732 95.7717 21.2216C95.7717 20.7112 95.6905 20.2356 95.5281 19.7947C95.3656 19.3539 95.1154 18.9976 94.7773 18.7259C94.4393 18.4541 94.0084 18.3182 93.4847 18.3182C92.9611 18.3182 92.5302 18.4541 92.1921 18.7259C91.854 18.9976 91.6038 19.3539 91.4414 19.7947C91.279 20.2356 91.1978 20.7112 91.1978 21.2216C91.1978 21.732 91.279 22.206 91.4414 22.6435C91.6038 23.081 91.854 23.4339 92.1921 23.7024C92.5302 23.9709 92.9611 24.1051 93.4847 24.1051ZM100.206 25L97.8796 17.3636H99.1126L100.763 23.2102H100.843L102.473 17.3636H103.726L105.337 23.1903H105.417L107.067 17.3636H108.3L105.973 25H104.82L103.15 19.1335H103.03L101.36 25H100.206ZM115.26 19.0739L114.206 19.3722C114.14 19.1965 114.042 19.0258 113.913 18.8601C113.787 18.6911 113.615 18.5518 113.396 18.4425C113.177 18.3331 112.897 18.2784 112.556 18.2784C112.088 18.2784 111.699 18.3861 111.387 18.6016C111.079 18.8137 110.925 19.0838 110.925 19.4119C110.925 19.7036 111.031 19.9339 111.243 20.103C111.455 20.272 111.787 20.4129 112.238 20.5256L113.371 20.804C114.054 20.9697 114.563 21.2232 114.897 21.5646C115.232 21.9027 115.4 22.3385 115.4 22.8722C115.4 23.3097 115.274 23.7008 115.022 24.0455C114.773 24.3902 114.425 24.6619 113.978 24.8608C113.53 25.0597 113.01 25.1591 112.417 25.1591C111.638 25.1591 110.993 24.9901 110.483 24.652C109.972 24.3139 109.649 23.8201 109.513 23.1705L110.627 22.892C110.733 23.303 110.933 23.6113 111.228 23.8168C111.527 24.0223 111.916 24.125 112.397 24.125C112.944 24.125 113.378 24.009 113.699 23.777C114.024 23.5417 114.186 23.2599 114.186 22.9318C114.186 22.6667 114.094 22.4446 113.908 22.2656C113.722 22.0833 113.437 21.9474 113.053 21.858L111.78 21.5597C111.081 21.3939 110.567 21.1371 110.239 20.7891C109.914 20.4377 109.752 19.9986 109.752 19.4716C109.752 19.0407 109.873 18.6596 110.115 18.3281C110.36 17.9967 110.693 17.7365 111.114 17.5476C111.538 17.3587 112.019 17.2642 112.556 17.2642C113.311 17.2642 113.905 17.4299 114.336 17.7614C114.77 18.0928 115.078 18.5303 115.26 19.0739Z" fill="white"/>
<rect x="1" y="0.5" width="144" height="39" rx="6.5" stroke="white"/>
</svg>
