<svg width="200" height="47" viewBox="0 0 200 47" fill="none" xmlns="http://www.w3.org/2000/svg">
<path d="M8.09249 0.5H191.908C196.101 0.5 199.5 3.89927 199.5 8.09249V38.1503C199.5 42.3435 196.101 45.7428 191.908 45.7428H8.09249C3.89927 45.7428 0.5 42.3435 0.5 38.1503V8.09249C0.5 3.89927 3.89927 0.5 8.09249 0.5Z" stroke="white"/>
<path d="M47.5421 13.8289V21.8241H55.625V12.0771L47.5421 13.8289ZM47.5421 31.6014L55.625 33.3228V23.5814H47.5421V31.6014ZM39 21.8213H45.8324V14.1196L39 15.6001V21.8213ZM39 29.858L45.8324 31.3137V23.5814H39V29.858Z" fill="white"/>
<path d="M83.3026 29L80.3196 18.0909H81.6619L83.9418 26.9759H84.0483L86.3707 18.0909H87.8622L90.1847 26.9759H90.2912L92.571 18.0909H93.9134L90.9304 29H89.5668L87.1591 20.3068H87.0739L84.6662 29H83.3026ZM95.3888 29V20.8182H96.646V29H95.3888ZM96.0281 19.4545C95.783 19.4545 95.5717 19.3711 95.3942 19.2042C95.2202 19.0373 95.1332 18.8366 95.1332 18.6023C95.1332 18.3679 95.2202 18.1673 95.3942 18.0004C95.5717 17.8335 95.783 17.75 96.0281 17.75C96.2731 17.75 96.4826 17.8335 96.6566 18.0004C96.8342 18.1673 96.9229 18.3679 96.9229 18.6023C96.9229 18.8366 96.8342 19.0373 96.6566 19.2042C96.4826 19.3711 96.2731 19.4545 96.0281 19.4545ZM100.206 24.0781V29H98.9484V20.8182H100.163V22.0966H100.269C100.461 21.6811 100.752 21.3473 101.143 21.0952C101.534 20.8395 102.038 20.7116 102.656 20.7116C103.21 20.7116 103.695 20.8253 104.11 21.0526C104.525 21.2763 104.849 21.6172 105.079 22.0753C105.31 22.5298 105.426 23.1051 105.426 23.8011V29H104.169V23.8864C104.169 23.2436 104.002 22.7429 103.668 22.3842C103.334 22.022 102.876 21.8409 102.294 21.8409C101.892 21.8409 101.534 21.9279 101.218 22.1019C100.905 22.2759 100.658 22.5298 100.477 22.8636C100.296 23.1974 100.206 23.6023 100.206 24.0781ZM110.812 29.1705C110.131 29.1705 109.529 28.9982 109.007 28.6538C108.485 28.3058 108.076 27.8157 107.781 27.1836C107.487 26.5479 107.339 25.7969 107.339 24.9304C107.339 24.071 107.487 23.3253 107.781 22.6932C108.076 22.0611 108.486 21.5728 109.012 21.2283C109.537 20.8839 110.145 20.7116 110.834 20.7116C111.366 20.7116 111.787 20.8004 112.096 20.978C112.409 21.152 112.646 21.3509 112.81 21.5746C112.977 21.7947 113.106 21.9759 113.199 22.1179H113.305V18.0909H114.562V29H113.348V27.7429H113.199C113.106 27.892 112.975 28.0803 112.805 28.3075C112.634 28.5312 112.391 28.7319 112.075 28.9094C111.759 29.0835 111.338 29.1705 110.812 29.1705ZM110.983 28.0412C111.487 28.0412 111.913 27.9098 112.261 27.647C112.609 27.3807 112.874 27.0131 113.055 26.5444C113.236 26.0721 113.327 25.527 113.327 24.9091C113.327 24.2983 113.238 23.7638 113.06 23.3058C112.883 22.8441 112.62 22.4854 112.272 22.2298C111.924 21.9705 111.494 21.8409 110.983 21.8409C110.45 21.8409 110.006 21.9776 109.651 22.2511C109.3 22.521 109.035 22.8885 108.857 23.3537C108.683 23.8153 108.596 24.3338 108.596 24.9091C108.596 25.4915 108.685 26.0206 108.863 26.4964C109.044 26.9687 109.31 27.3452 109.662 27.6257C110.017 27.9027 110.457 28.0412 110.983 28.0412ZM120.363 29.1705C119.624 29.1705 118.976 28.9947 118.419 28.6431C117.865 28.2915 117.432 27.7997 117.119 27.1676C116.81 26.5355 116.656 25.7969 116.656 24.9517C116.656 24.0994 116.81 23.3555 117.119 22.7198C117.432 22.0842 117.865 21.5906 118.419 21.239C118.976 20.8874 119.624 20.7116 120.363 20.7116C121.102 20.7116 121.748 20.8874 122.302 21.239C122.86 21.5906 123.293 22.0842 123.602 22.7198C123.914 23.3555 124.07 24.0994 124.07 24.9517C124.07 25.7969 123.914 26.5355 123.602 27.1676C123.293 27.7997 122.86 28.2915 122.302 28.6431C121.748 28.9947 121.102 29.1705 120.363 29.1705ZM120.363 28.0412C120.924 28.0412 121.386 27.8974 121.748 27.6097C122.11 27.3221 122.378 26.9439 122.552 26.4751C122.726 26.0064 122.813 25.4986 122.813 24.9517C122.813 24.4048 122.726 23.8952 122.552 23.4229C122.378 22.9506 122.11 22.5689 121.748 22.2777C121.386 21.9865 120.924 21.8409 120.363 21.8409C119.802 21.8409 119.34 21.9865 118.978 22.2777C118.616 22.5689 118.348 22.9506 118.174 23.4229C118 23.8952 117.913 24.4048 117.913 24.9517C117.913 25.4986 118 26.0064 118.174 26.4751C118.348 26.9439 118.616 27.3221 118.978 27.6097C119.34 27.8974 119.802 28.0412 120.363 28.0412ZM127.565 29L125.072 20.8182H126.393L128.161 27.0824H128.247L129.994 20.8182H131.336L133.062 27.0611H133.147L134.916 20.8182H136.237L133.744 29H132.508L130.718 22.7145H130.59L128.801 29H127.565ZM143.694 22.6506L142.565 22.9702C142.494 22.782 142.389 22.5991 142.251 22.4215C142.116 22.2404 141.931 22.0913 141.697 21.9741C141.462 21.8569 141.162 21.7983 140.796 21.7983C140.296 21.7983 139.878 21.9137 139.545 22.1445C139.214 22.3718 139.049 22.6612 139.049 23.0128C139.049 23.3253 139.163 23.5721 139.39 23.7532C139.617 23.9343 139.972 24.0852 140.455 24.206L141.67 24.5043C142.401 24.6818 142.947 24.9535 143.305 25.3192C143.664 25.6815 143.843 26.1484 143.843 26.7202C143.843 27.1889 143.708 27.608 143.438 27.9773C143.172 28.3466 142.799 28.6378 142.32 28.8509C141.84 29.0639 141.283 29.1705 140.647 29.1705C139.813 29.1705 139.122 28.9893 138.575 28.6271C138.028 28.2649 137.682 27.7358 137.536 27.0398L138.73 26.7415C138.843 27.1818 139.058 27.5121 139.374 27.7322C139.694 27.9524 140.111 28.0625 140.626 28.0625C141.212 28.0625 141.677 27.9382 142.021 27.6896C142.369 27.4375 142.544 27.1357 142.544 26.7841C142.544 26.5 142.444 26.2621 142.245 26.0703C142.046 25.875 141.741 25.7294 141.329 25.6335L139.965 25.3139C139.216 25.1364 138.666 24.8612 138.314 24.4883C137.966 24.1119 137.792 23.6413 137.792 23.0767C137.792 22.6151 137.922 22.2067 138.181 21.8516C138.444 21.4964 138.801 21.2177 139.252 21.0153C139.706 20.8129 140.221 20.7116 140.796 20.7116C141.606 20.7116 142.242 20.8892 142.703 21.2443C143.169 21.5994 143.499 22.0682 143.694 22.6506Z" fill="white"/>
</svg>
