<svg width="35" height="35" viewBox="0 0 35 35" fill="none" xmlns="http://www.w3.org/2000/svg">
<path d="M33.871 17.5C33.871 7.83398 26.2897 0 16.9355 0C7.58128 0 0 7.83398 0 17.5C0 27.166 7.58128 35 16.9355 35C17.0347 35 17.1339 35 17.2332 34.9932V21.376H13.5947V16.9941H17.2332V13.7676C17.2332 10.0283 19.4427 7.99121 22.6711 7.99121C24.2191 7.99121 25.5488 8.10742 25.9325 8.16211V12.0723H23.7097C21.9566 12.0723 21.6126 12.9336 21.6126 14.1982V16.9873H25.8134L25.2643 21.3691H21.6126V34.3232C28.6911 32.2246 33.871 25.4912 33.871 17.5Z" fill="white"/>
</svg>
