<svg width="35" height="35" viewBox="0 0 35 35" fill="none" xmlns="http://www.w3.org/2000/svg">
<path fill-rule="evenodd" clip-rule="evenodd" d="M17.5 0C7.83708 0 0 7.83417 0 17.5C0 27.1644 7.83708 35 17.5 35C27.1644 35 35 27.1644 35 17.5C35 7.83417 27.1644 0 17.5 0ZM25.5835 23.9006C26.88 22.9615 27.7083 21.5717 27.7083 20.0273C27.7083 17.1981 24.955 14.9027 21.5585 14.9027C18.1621 14.9027 15.4088 17.1981 15.4088 20.0273C15.4088 22.8579 18.1621 25.1519 21.5585 25.1519C22.26 25.1519 22.9381 25.0527 23.5667 24.8719L23.7475 24.8442C23.8656 24.8442 23.9721 24.8806 24.0742 24.939L25.4202 25.7163L25.5383 25.7542C25.6521 25.7542 25.7425 25.6623 25.7425 25.55L25.7104 25.3998L25.4333 24.3658L25.4115 24.2346C25.4115 24.0975 25.48 23.975 25.5835 23.9006ZM14.6708 9.24583C10.5963 9.24583 7.29167 11.9992 7.29167 15.3956C7.29167 17.2477 8.28625 18.916 9.84083 20.0433C9.96625 20.1323 10.0479 20.2781 10.0479 20.4444L10.0217 20.6004L9.68917 21.8415L9.64979 22.0208C9.64979 22.1565 9.76062 22.2673 9.89625 22.2673L10.0377 22.2206L11.6535 21.2887C11.7746 21.2188 11.9044 21.175 12.0458 21.175L12.2631 21.2071C13.0156 21.4244 13.8294 21.544 14.6708 21.544L15.0763 21.5352C14.9158 21.0554 14.8283 20.5508 14.8283 20.0273C14.8283 16.9312 17.8413 14.42 21.5585 14.42L21.9596 14.4302C21.404 11.4917 18.3531 9.24583 14.6708 9.24583ZM19.5081 19.2077C19.056 19.2077 18.6885 18.8402 18.6885 18.3881C18.6885 17.9346 19.056 17.5685 19.5081 17.5685C19.9617 17.5685 20.3292 17.9346 20.3292 18.3881C20.3292 18.8402 19.9617 19.2077 19.5081 19.2077ZM23.609 19.2077C23.1554 19.2077 22.7894 18.8402 22.7894 18.3881C22.7894 17.9346 23.1554 17.5685 23.609 17.5685C24.061 17.5685 24.4285 17.9346 24.4285 18.3881C24.4285 18.8402 24.061 19.2077 23.609 19.2077ZM12.2121 14.4113C11.6681 14.4113 11.2277 13.9708 11.2277 13.4269C11.2277 12.8844 11.6681 12.444 12.2121 12.444C12.7546 12.444 13.195 12.8844 13.195 13.4269C13.195 13.9708 12.7546 14.4113 12.2121 14.4113ZM17.131 14.4113C16.5871 14.4113 16.1467 13.9708 16.1467 13.4269C16.1467 12.8844 16.5871 12.444 17.131 12.444C17.675 12.444 18.1154 12.8844 18.1154 13.4269C18.1154 13.9708 17.675 14.4113 17.131 14.4113Z" fill="white"/>
</svg>
