<svg width="58" height="58" viewBox="0 0 58 58" fill="none" xmlns="http://www.w3.org/2000/svg">
<path d="M49.7564 47.9723C54.3412 42.9611 57.1657 36.3129 57.1657 29.002C57.1657 21.7132 54.3587 15.0843 49.7988 10.0775C49.7747 10.0328 49.7653 9.98371 49.734 9.94174C49.6497 9.82969 49.5465 9.74041 49.4327 9.67434C44.2948 4.24577 37.0453 0.835938 28.9996 0.835938C26.908 0.835938 24.8759 1.08236 22.9134 1.51674C22.896 1.51808 22.8794 1.51004 22.8616 1.51227C22.7781 1.52254 22.7076 1.56004 22.6326 1.58906C17.1035 2.87386 12.2054 5.78643 8.45314 9.79935C8.39422 9.84801 8.32904 9.88818 8.28038 9.95113C8.26163 9.97568 8.25806 10.0056 8.24199 10.0315C3.6581 15.0435 0.833984 21.6909 0.833984 29.0018C0.833984 36.2898 3.64073 42.9183 8.19959 47.9241C8.22369 47.9696 8.23351 48.0196 8.26566 48.062C8.33039 48.1468 8.41878 48.1973 8.50182 48.2562C13.6428 53.7253 20.919 57.1651 29.0001 57.1651C31.0783 57.1651 33.0983 56.9231 35.0497 56.4937C35.0792 56.4923 35.1086 56.4919 35.1381 56.4883C35.2211 56.4781 35.2908 56.4406 35.3658 56.412C40.9154 55.1232 45.8292 52.1937 49.5875 48.1584C49.6299 48.1191 49.6839 48.0968 49.7201 48.049C49.7379 48.0262 49.7415 47.9972 49.7571 47.9727L49.7564 47.9723ZM4.33807 37.5892L11.9269 34.3731C12.7242 36.9017 14.0814 39.1771 15.8341 41.0851L9.23807 46.061C7.10505 43.594 5.43499 40.7284 4.33807 37.5891V37.5892ZM2.85864 29.0017C2.85864 26.7026 3.18677 24.4834 3.74703 22.3575L11.4314 25.6141C11.2202 26.7124 11.1001 27.8427 11.1001 29.0012C11.1001 30.1593 11.2202 31.2888 11.4309 32.386L3.74613 35.6427C3.18676 33.5181 2.85863 31.2999 2.85863 29.0017H2.85864ZM9.23762 11.9411L15.8327 16.9175C14.0809 18.825 12.7247 21.1001 11.9273 23.6282L4.33899 20.4121C5.43542 17.2728 7.1055 14.4076 9.23762 11.9411V11.9411ZM17.2966 15.4871L10.6135 10.4442C13.7684 7.31826 17.7202 5.01163 22.1244 3.80809L23.1467 12.1023C20.9771 12.8563 18.998 14.0112 17.2963 15.4871H17.2966ZM17.2979 42.5145C18.9993 43.9899 20.9778 45.1444 23.1471 45.8984L22.1248 54.1925C17.7203 52.989 13.7681 50.6827 10.6139 47.5572L17.2979 42.5145ZM13.1247 29.0013C13.1247 20.2465 20.2452 13.1236 29.0001 13.1236C37.755 13.1236 44.8755 20.2468 44.8755 29.0013C44.8755 37.7562 37.755 44.8768 29.0001 44.8768C20.2452 44.8768 13.1247 37.7562 13.1247 29.0013V29.0013ZM53.6618 20.4112L46.0735 23.6273C45.2761 21.0996 43.9194 18.8247 42.1681 16.917L48.7636 11.9411C50.8953 14.4081 52.565 17.2728 53.6618 20.4112ZM55.1417 29.0013C55.1417 31.3 54.8136 33.5179 54.2538 35.6433L46.5694 32.3861C46.7806 31.2888 46.9002 30.1594 46.9002 29.0013C46.9002 27.8424 46.7801 26.7125 46.569 25.6143L54.2533 22.3576C54.8131 24.4831 55.1417 26.7018 55.1417 29.0013V29.0013ZM40.704 15.4871C39.0026 14.0112 37.0236 12.8559 34.8536 12.1018L35.8759 3.80763C40.2808 5.01163 44.2331 7.31837 47.3879 10.4447L40.704 15.4871ZM40.7026 42.5145L47.3875 47.5569C44.2326 50.6828 40.2807 52.9885 35.8754 54.1925L34.8531 45.8984C37.0227 45.1443 39.0014 43.9895 40.7027 42.5145H40.7026ZM42.1669 41.0841C43.9191 39.1761 45.2762 36.9007 46.0741 34.3724L53.6629 37.589C52.5664 40.7283 50.8959 43.5935 48.7638 46.06L42.1669 41.0841ZM33.8936 3.33551L32.8829 11.5351C31.6311 11.2565 30.3347 11.0985 29.0003 11.0985C27.6659 11.0985 26.3694 11.2565 25.1176 11.5351L24.1069 3.33551C25.694 3.03329 27.3266 2.85962 29.0002 2.85962C30.6738 2.85962 32.3065 3.03327 33.8934 3.33551H33.8936ZM24.107 54.6635L25.1177 46.4635C26.3695 46.7421 27.6659 46.9001 29.0003 46.9001C30.3347 46.9001 31.6312 46.7421 32.883 46.4635L33.8937 54.6635C32.3066 54.9653 30.674 55.139 29.0004 55.139C27.3264 55.1394 25.6941 54.9658 24.1072 54.6635H24.107Z" fill="white"/>
<path d="M30.3002 37.3193V35.6554C32.5543 35.3161 34.0694 34.0268 34.0694 31.705C34.0694 29.5125 32.9136 28.2715 29.839 27.4143C27.6376 26.7956 27.1502 26.3911 27.1502 25.4921C27.1502 24.8563 27.5261 24.0782 28.8475 24.0782C30.4216 24.0782 30.6886 25.0023 30.8368 25.5747H33.7569C33.6047 23.9716 32.6922 22.3934 30.1363 22.0059V20.6836H27.6899V22.0354C25.7382 22.4046 24.2078 23.6925 24.2078 25.7759C24.2078 27.7099 25.2234 28.9929 28.6989 29.9942C30.6078 30.5393 31.1426 31.0326 31.1426 32.0425C31.1426 32.8661 30.6565 33.5956 29.1342 33.5956C27.9047 33.5956 27.0855 32.9264 26.8489 31.8648H23.9302C24.09 33.8523 25.4578 35.2992 27.8342 35.6621V37.3193H30.3002Z" fill="white"/>
</svg>
