<svg width="61" height="60" viewBox="0 0 61 60" fill="none" xmlns="http://www.w3.org/2000/svg">
<path d="M46.373 14.1261C45.7614 8.89303 42.6096 4.29748 37.9476 1.84149C33.286 -0.613828 27.7136 -0.613828 23.0516 1.84149C18.3895 4.29726 15.2377 8.8928 14.6261 14.1261C9.39303 14.7377 4.79749 17.8895 2.34149 22.5515C-0.113829 27.2131 -0.113829 32.7855 2.34149 37.4475C4.79726 42.1096 9.3928 45.2614 14.6261 45.873C15.2377 51.106 18.3895 55.7016 23.0516 58.1576C27.7132 60.6129 33.2855 60.6129 37.9476 58.1576C42.6096 55.7018 45.7614 51.1063 46.373 45.873C51.6061 45.2614 56.2016 42.1096 58.6576 37.4475C61.1129 32.7859 61.1129 27.2136 58.6576 22.5515C56.2018 17.8895 51.6063 14.7377 46.373 14.1261V14.1261ZM45.3891 43.9523L45.3887 43.9528C44.886 43.9845 44.4855 44.3849 44.4538 44.8876C44.1565 49.667 41.4337 53.9617 37.2377 56.2693C33.0422 58.5773 27.9574 58.5773 23.7623 56.2693C19.5663 53.9618 16.8435 49.667 16.5462 44.8876C16.5145 44.3849 16.114 43.9845 15.6114 43.9528C10.8319 43.6555 6.53729 40.9327 4.22963 36.7367C1.92163 32.5411 1.92163 27.4563 4.22963 23.2612C6.53718 19.0652 10.8319 16.3425 15.6114 16.0451C16.114 16.0134 16.5145 15.613 16.5462 15.1103C16.8435 10.3309 19.5663 6.03625 23.7623 3.72859C27.9578 1.42059 33.0426 1.42059 37.2377 3.72859C41.4337 6.03614 44.1565 10.3309 44.4538 15.1103C44.4855 15.613 44.886 16.0134 45.3887 16.0451C50.1681 16.3425 54.4627 19.0652 56.7704 23.2612C59.0784 27.4568 59.0784 32.5416 56.7704 36.7367C54.4628 40.9327 50.1681 43.6554 45.3887 43.9528L45.3891 43.9523Z" fill="white"/>
<path d="M44.5 18C43.7585 18 43.0183 18.0705 42.2902 18.2098C42.4294 17.4816 42.5 16.7414 42.5 15.9999C42.5 11.7129 40.2129 7.75126 36.5 5.60749C32.7871 3.46417 28.2129 3.46417 24.5 5.60749C20.787 7.75126 18.5 11.7129 18.5 15.9999C18.5 16.7415 18.5705 17.4817 18.7098 18.2098C17.9817 18.0705 17.2414 18 16.4999 18C12.2129 18 8.25126 20.287 6.10749 24C3.96417 27.7129 3.96417 32.287 6.10749 36C8.25126 39.7129 12.2129 42 16.4999 42C17.2415 42 17.9817 41.9294 18.7098 41.7901C18.5705 42.5183 18.5 43.2585 18.5 44C18.5 48.2871 20.787 52.2487 24.5 54.3924C28.2129 56.5357 32.7871 56.5357 36.5 54.3924C40.2129 52.2487 42.5 48.2871 42.5 44C42.5 43.2585 42.4294 42.5183 42.2902 41.7901C43.0183 41.9294 43.7585 42 44.5 42C48.7871 42 52.7487 39.7129 54.8924 36C57.0358 32.287 57.0358 27.7129 54.8924 24C52.7487 20.287 48.7871 18 44.5 18V18ZM44.5 40C43.3781 39.9973 42.2643 39.8058 41.2058 39.433C40.8438 39.3071 40.4415 39.3991 40.1705 39.6705C39.8991 39.9415 39.8071 40.3437 39.933 40.7058C41.0098 43.7655 40.5353 47.158 38.6607 49.8049C36.7862 52.4522 33.7438 54.0254 30.5 54.0254C27.2562 54.0254 24.2138 52.4522 22.3393 49.8049C20.4648 47.158 19.9902 43.7655 21.067 40.7058C21.1737 40.4004 21.1259 40.0616 20.9389 39.7977C20.7514 39.5334 20.4478 39.3763 20.1241 39.3759C20.0116 39.3759 19.9 39.3955 19.7942 39.433C16.7344 40.5098 13.342 40.0352 10.6951 38.1607C8.04781 36.2861 6.47455 33.2437 6.47455 30C6.47455 26.7562 8.04781 23.7138 10.6951 21.8393C13.342 19.9648 16.7344 19.4901 19.7942 20.5669C20.1563 20.6928 20.5585 20.6009 20.8295 20.3294C21.1009 20.0585 21.1929 19.6562 21.067 19.2942C19.9902 16.2344 20.4648 12.8419 22.3393 10.1951C24.2138 7.54777 27.2562 5.97451 30.5 5.97451C33.7438 5.97451 36.7862 7.54777 38.6607 10.1951C40.5352 12.8419 41.0098 16.2344 39.933 19.2942C39.8071 19.6562 39.8991 20.0585 40.1705 20.3294C40.4415 20.6009 40.8438 20.6928 41.2058 20.5669C43.9875 19.5884 47.0594 19.887 49.6 21.3835C52.141 22.8799 53.892 25.4214 54.3848 28.3289C54.8776 31.2361 54.062 34.2124 52.1562 36.4629C50.2504 38.7129 47.4487 40.0076 44.5 39.9999V40Z" fill="white"/>
<path d="M34.8302 25.6693C34.5588 25.3979 34.1557 25.3064 33.7936 25.4332C31.6619 26.1863 29.3369 26.1863 27.2052 25.4332C26.8432 25.3073 26.441 25.3992 26.17 25.6707C25.8985 25.9416 25.8066 26.3439 25.9325 26.7059C26.6883 28.8371 26.6883 31.1631 25.9325 33.2943C25.8066 33.6563 25.8986 34.0585 26.17 34.3295C26.441 34.6009 26.8432 34.6929 27.2052 34.567C29.3369 33.8139 31.6619 33.8139 33.7936 34.567C33.8994 34.6045 34.011 34.6242 34.1235 34.6242C34.4472 34.6237 34.7507 34.4666 34.9382 34.2023C35.1253 33.9384 35.1731 33.5996 35.0664 33.2943C34.3106 31.1631 34.3106 28.8371 35.0664 26.7059C35.1932 26.3439 35.1016 25.9407 34.8302 25.6693V25.6693ZM32.7092 32.2099C31.2494 31.93 29.7494 31.93 28.2895 32.2099C28.5694 30.7501 28.5694 29.2501 28.2895 27.7902C29.7493 28.0692 31.2493 28.0692 32.7092 27.7902C32.4293 29.25 32.4293 30.75 32.7092 32.2099V32.2099Z" fill="white"/>
<path d="M27.4995 21.0002C28.2044 20.9952 28.895 20.801 29.4995 20.4381V24.0002H31.4995V20.4381C32.104 20.801 32.7946 20.9952 33.4995 21.0002C34.8276 21.0006 36.0691 20.3421 36.8133 19.2426C37.558 18.143 37.708 16.7456 37.2142 15.5126C36.7205 14.28 35.6472 13.3728 34.3495 13.0911C34.6893 11.8853 34.4446 10.5902 33.6888 9.59157C32.9326 8.59291 31.7523 8.00586 30.4996 8.00586C29.2469 8.00586 28.0665 8.59291 27.3103 9.59157C26.5545 10.5902 26.3099 11.8853 26.6496 13.0911C25.3519 13.3728 24.2786 14.2799 23.7849 15.5126C23.2912 16.7456 23.4412 18.143 24.1858 19.2426C24.93 20.3421 26.1715 21.0006 27.4996 21.0002H27.4995ZM27.4995 15.0001C27.7089 15.0046 27.9165 15.0421 28.1147 15.1113C28.5575 15.2533 29.0401 15.0716 29.2786 14.6725C29.5174 14.2734 29.4495 13.7622 29.1147 13.439C28.7205 13.0644 28.4982 12.5439 28.4995 12.0001C28.4995 11.2854 28.8808 10.6252 29.4995 10.268C30.1183 9.91087 30.8808 9.91087 31.4995 10.268C32.1183 10.6252 32.4995 11.2854 32.4995 12.0001C32.5 12.5443 32.2759 13.0649 31.8803 13.439C31.5455 13.7622 31.4777 14.2734 31.7165 14.6725C31.9549 15.0716 32.4375 15.2533 32.8804 15.1113C33.4179 14.9381 34.0036 15.001 34.492 15.2845C34.9804 15.568 35.3255 16.0457 35.4412 16.5983C35.5572 17.151 35.4331 17.7269 35.0996 18.1827C34.7666 18.6385 34.2554 18.9314 33.6938 18.9889C33.1317 19.0461 32.5719 18.8622 32.1536 18.4831C31.7353 18.1037 31.4978 17.5648 31.4996 17.0001V16.3621C31.4996 15.8099 31.0518 15.3621 30.4995 15.3621C29.9473 15.3621 29.4995 15.8099 29.4995 16.3621V17.0001C29.4995 17.5304 29.2888 18.0393 28.9138 18.4143C28.5388 18.7893 28.0299 19.0001 27.4995 19.0001C26.9692 19.0001 26.4603 18.7893 26.0853 18.4143C25.7103 18.0393 25.4995 17.5304 25.4995 17.0001C25.4995 16.4697 25.7103 15.9608 26.0853 15.5858C26.4603 15.2108 26.9692 15.0001 27.4995 15.0001L27.4995 15.0001Z" fill="white"/>
<path d="M16.2679 23.3595C16.0719 23.1421 15.7929 23.0176 15.5001 23.0176C15.2072 23.0176 14.9282 23.1421 14.7322 23.3595L9.73218 29.3595C9.42326 29.7305 9.42326 30.2689 9.73218 30.6399L14.7322 36.6399C14.9219 36.8676 15.2032 36.9992 15.5001 36.9992C15.7969 36.9992 16.0782 36.8676 16.2679 36.6399L21.2679 30.6399C21.5768 30.2689 21.5768 29.7305 21.2679 29.3595L16.2679 23.3595ZM15.5001 34.4377L11.8 29.9998L15.5001 25.5618L19.2001 29.9998L15.5001 34.4377Z" fill="white"/>
<path d="M44.4995 24.7535C43.6231 24.2245 42.6008 23.9874 41.5807 24.0772C40.5606 24.1673 39.5959 24.5794 38.8254 25.2535C37.9714 26.0169 37.4835 27.1084 37.4844 28.2535C37.4938 29.4218 37.9942 30.5325 38.8633 31.3129L44.4995 36.3366L50.1446 31.3085V31.3089C51.0089 30.5286 51.5062 29.4214 51.5147 28.2567C51.5156 27.1112 51.0276 26.0201 50.1736 25.2567C49.4036 24.5817 48.4388 24.1692 47.4188 24.079C46.3987 23.9884 45.3764 24.225 44.4996 24.7535L44.4995 24.7535ZM48.8053 29.8226L44.4995 33.6588L40.1995 29.8306C39.7472 29.432 39.4861 28.8597 39.4816 28.2566C39.4838 27.6749 39.7347 27.1218 40.1704 26.7365C40.6785 26.2994 41.3262 26.0592 41.9964 26.0592C42.6665 26.0592 43.3147 26.2994 43.8227 26.7365L44.4968 27.3503L45.1709 26.7365H45.1704C45.6785 26.2994 46.3262 26.0592 46.9964 26.0592C47.6665 26.0592 48.3147 26.2994 48.8227 26.7365C49.2584 27.1217 49.5088 27.6749 49.5115 28.2566C49.5088 28.8553 49.2521 29.4245 48.8053 29.8226H48.8053Z" fill="white"/>
<path d="M31.1647 36.2531C30.7853 35.9156 30.2138 35.9156 29.8343 36.2531L24.8544 40.6892V40.6888C23.9901 41.4692 23.4928 42.5763 23.4844 43.741C23.4835 44.8865 23.9714 45.9776 24.8254 46.741C26.1057 47.8625 27.8844 48.2218 29.4995 47.6861V51H31.4995V47.691C31.9838 47.8495 32.4896 47.9321 32.9995 47.9348C34.17 47.9437 35.3017 47.516 36.1735 46.7348C37.0275 45.9718 37.5155 44.8803 37.5145 43.7348C37.5052 42.5669 37.0047 41.4561 36.1356 40.6758L31.1647 36.2531ZM34.8259 45.2611H34.8254C34.3174 45.6982 33.6696 45.9384 32.9995 45.9384C32.3293 45.9384 31.6816 45.6982 31.1735 45.2611C30.7914 44.9125 30.2075 44.9125 29.8253 45.2611C29.3173 45.6982 28.6695 45.9384 27.9994 45.9384C27.3292 45.9384 26.6815 45.6982 26.1734 45.2611C25.7377 44.8759 25.4868 44.3227 25.4841 43.741C25.4877 43.1419 25.7457 42.5727 26.1935 42.175L30.4993 38.3388L34.7993 42.167C35.2516 42.5656 35.5127 43.1379 35.5172 43.741C35.5141 44.3232 35.2623 44.8763 34.8252 45.2611H34.8259Z" fill="white"/>
<path d="M21.5 23H23.5V25H21.5V23Z" fill="white"/>
<path d="M37.5 36H39.5V38H37.5V36Z" fill="white"/>
</svg>
