<svg width="62" height="60" viewBox="0 0 62 60" fill="none" xmlns="http://www.w3.org/2000/svg">
<path d="M51.5989 3.09247C51.3337 2.06612 50.6735 1.18664 49.7628 0.644695C48.8516 0.10273 47.7637 -0.0570871 46.7351 0.200056L22.7751 6.24737L15.2667 4.35091C14.2381 4.09288 13.1488 4.25225 12.2367 4.79466C11.3251 5.33663 10.6648 6.2174 10.4002 7.24472L1.08896 44.0881C0.835386 45.118 0.998339 46.206 1.54254 47.1163C2.08674 48.0265 2.96848 48.6854 3.99523 48.9493L12.9997 51.2189V55.9252C13.001 56.9854 13.4224 58.0024 14.1725 58.7524C14.9225 59.5019 15.939 59.9238 16.9997 59.9252H44.9997C46.0604 59.9238 47.0769 59.5019 47.8269 58.7524C48.5769 58.0024 48.9983 56.9854 48.9997 55.9252V47.0685L58.006 44.798C59.0332 44.5332 59.9144 43.8739 60.4582 42.9631C61.0019 42.0524 61.164 40.9636 60.9095 39.9336L51.5989 3.09247ZM4.48691 47.0113C3.97262 46.8787 3.5311 46.5484 3.25834 46.0926C2.98557 45.6363 2.90342 45.0912 3.03021 44.5747L12.3396 7.73588C12.4717 7.2216 12.8021 6.78097 13.2588 6.5096C13.715 6.23861 14.2606 6.1596 14.7754 6.28995L18.8548 7.32031C18.0217 7.7212 17.3517 8.39665 16.9574 9.23276C16.5637 10.0694 16.4695 11.0162 16.6909 11.9136L17.1967 13.9252V13.9257C16.1034 13.8766 15.0373 14.2757 14.2454 15.0306C13.4534 15.7855 13.0034 16.8315 13.0002 17.9257V49.1565L4.48691 47.0113ZM47 55.9256C46.9996 56.456 46.7884 56.964 46.4134 57.339C46.0384 57.714 45.5304 57.9247 45.0001 57.9256H17.0001C16.4697 57.9247 15.9617 57.714 15.5867 57.339C15.2117 56.964 15.0005 56.4559 15.0001 55.9256V17.9256C15.0005 17.3953 15.2117 16.8868 15.5867 16.5118C15.9617 16.1372 16.4697 15.9261 17.0001 15.9256H45.0001C45.5304 15.9261 46.0385 16.1372 46.4134 16.5118C46.7884 16.8868 46.9996 17.3953 47 17.9256V55.9256ZM57.5152 42.8605L49 45.0069V17.9257C48.9987 16.865 48.5773 15.8485 47.8272 15.0985C47.0772 14.3486 46.0607 13.9266 45 13.9257H19.2583L18.6302 11.4288V11.4284C18.5025 10.9123 18.5838 10.3667 18.8561 9.91008C19.128 9.45338 19.5695 9.12213 20.0842 8.98909L47.2271 2.13869C47.7414 2.007 48.2869 2.08602 48.7432 2.357C49.1999 2.62843 49.5298 3.0704 49.6601 3.58466L58.9691 40.4212C59.0967 40.9373 59.0155 41.4828 58.7432 41.9395C58.4713 42.3962 58.0298 42.7275 57.5151 42.8605L57.5152 42.8605Z" fill="white"/>
<path d="M40.7804 20.3006C40.584 20.0742 40.2992 19.9443 39.9996 19.9443C39.7001 19.9443 39.4152 20.0742 39.2188 20.3006L35.2188 25.3006C34.9264 25.6658 34.9264 26.185 35.2188 26.5506L39.2188 31.5506C39.4099 31.7855 39.6969 31.9216 39.9996 31.9216C40.3023 31.9216 40.5894 31.7855 40.7804 31.5506L44.7804 26.5506C45.0728 26.185 45.0728 25.6658 44.7804 25.3006L40.7804 20.3006ZM39.9996 29.3247L37.2804 25.9252L39.9996 22.5261L42.7188 25.9256L39.9996 29.3247Z" fill="white"/>
<path d="M40.6879 39.1997C40.3022 38.8345 39.6977 38.8345 39.312 39.1997C38.5919 39.8823 35 43.4135 35 45.9256C34.9982 46.8028 35.2281 47.6654 35.6674 48.4252C36.1062 49.185 36.7388 49.8153 37.5 50.2514V51.4255C37.5 52.3188 37.9763 53.1438 38.75 53.5907C39.5237 54.0371 40.4763 54.0371 41.25 53.5907C42.0237 53.1438 42.5001 52.3188 42.5001 51.4255V50.2514C47.8769 46.6345 43.2403 41.6648 40.6881 39.1997H40.6879ZM41.1245 48.7015V48.7019C40.7473 48.8551 40.4999 49.2216 40.4999 49.6287V51.4257C40.4999 51.7016 40.2763 51.9257 39.9999 51.9257C39.7236 51.9257 39.4999 51.7016 39.4999 51.4257V49.6287C39.4999 49.2216 39.2526 48.8551 38.8754 48.7019C38.3209 48.4796 37.8459 48.0961 37.5115 47.6015C37.1771 47.1064 36.999 46.5229 36.9999 45.9256C36.9999 44.877 38.5833 42.8202 39.9999 41.3385C41.4165 42.8198 42.9999 44.8765 42.9999 45.9256C43.0008 46.5229 42.8227 47.1064 42.4883 47.6015C42.1539 48.0961 41.6789 48.4796 41.1244 48.7019L41.1245 48.7015Z" fill="white"/>
<path d="M27.4079 21.1314C26.2673 20.7153 24.9922 20.9144 24.0329 21.6591C21.2437 19.5425 17.9968 22.2104 18.0347 25.1015C17.9084 27.5596 20.8017 30.5671 24.295 30.9024C27.7306 29.9707 30.0901 27.585 30.0325 25.1015L30.032 25.1011C30.0289 24.256 29.7785 23.4301 29.3124 22.7247C28.8463 22.0198 28.1843 21.4657 27.4079 21.1314L27.4079 21.1314ZM24.0329 28.897C21.3673 28.0935 20.0034 26.4242 20.0334 25.1479V25.1483C20.0347 24.7113 20.1539 24.2831 20.3789 23.909C20.6039 23.5345 20.9258 23.2282 21.3111 23.022C21.9249 22.7706 22.9624 22.9849 23.0593 23.7456H23.0588C23.1718 24.1916 23.5731 24.5041 24.0329 24.5041C24.4932 24.5041 24.8946 24.1916 25.007 23.7456C25.1151 22.9452 26.1874 22.7916 26.7544 23.0211C27.1396 23.2273 27.4619 23.534 27.687 23.9081C27.912 24.2827 28.0316 24.7112 28.0329 25.1483C28.0624 26.4247 26.6985 28.0935 24.0329 28.897V28.897Z" fill="white"/>
<path d="M27.4426 43.0548C27.6207 42.0378 27.3399 40.9941 26.676 40.2039C26.0118 39.4133 25.0323 38.957 24.0002 38.957C22.968 38.957 21.9885 39.4133 21.3243 40.2039C20.6604 40.9941 20.3796 42.0378 20.5578 43.0548C19.4721 43.3699 18.6051 44.19 18.2297 45.2566C17.8542 46.3235 18.0163 47.5057 18.6654 48.4316C19.314 49.3579 20.3694 49.9142 21.5002 49.9257V51.4257C21.5002 52.3186 21.9766 53.144 22.7503 53.5904C23.5239 54.0373 24.4766 54.0373 25.2503 53.5904C26.0239 53.144 26.5003 52.3185 26.5003 51.4257V49.9257C27.6311 49.9141 28.6865 49.3579 29.3352 48.4316C29.9843 47.5057 30.1463 46.3236 29.7709 45.2566C29.3954 44.1901 28.5285 43.37 27.4428 43.0548H27.4426ZM25.9002 47.7976C25.5908 47.6668 25.2363 47.6985 24.9555 47.8824C24.6743 48.0668 24.5037 48.3789 24.5002 48.7146V51.4258C24.4948 51.6981 24.2725 51.916 24.0002 51.916C23.7278 51.916 23.5055 51.6981 23.5002 51.4258V48.7146C23.497 48.1637 23.0511 47.7177 22.5002 47.7146C22.1573 47.7132 21.8466 47.9534 21.5002 47.9253V47.9257C21.0725 47.9262 20.6649 47.7441 20.3801 47.4249C20.0953 47.1057 19.9604 46.6802 20.01 46.2552C20.0591 45.8307 20.2877 45.4472 20.6381 45.2017C20.9881 44.9561 21.4269 44.8722 21.843 44.9704C22.2578 45.0606 22.6841 44.8802 22.9086 44.5204C23.1336 44.1606 23.1082 43.6981 22.8453 43.3651C22.6252 43.1013 22.5033 42.7691 22.5002 42.4258C22.7113 39.7584 26.7091 41.0848 25.155 43.3651C24.8925 43.6986 24.8671 44.1606 25.0916 44.5204C25.3166 44.8802 25.743 45.0602 26.1572 44.9704C26.6211 44.8686 27.1055 44.9941 27.4617 45.3084C27.8175 45.6222 28.0028 46.0869 27.9595 46.5597C27.9166 47.0325 27.6505 47.4566 27.2438 47.7012C26.8367 47.9458 26.3376 47.9816 25.9001 47.7976L25.9002 47.7976Z" fill="white"/>
</svg>
