<svg width="65" height="68" viewBox="0 0 65 68" fill="none" xmlns="http://www.w3.org/2000/svg">
<path d="M38.5 11.793H40.5V28.4596H38.5V11.793Z" fill="white"/>
<path d="M38.5 7.625H40.5V9.70833H38.5V7.625Z" fill="white"/>
<path d="M26.5004 36.7922H21.5004C20.7049 36.7922 19.9415 36.463 19.3791 35.877C18.8167 35.2911 18.5005 34.4958 18.5005 33.6673V3.45893C18.5005 2.63025 18.8166 1.835 19.3791 1.24916C19.9416 0.66333 20.705 0.333984 21.5004 0.333984H37.5004C38.296 0.333984 39.0594 0.663223 39.6218 1.24916C40.1842 1.8351 40.5004 2.63035 40.5004 3.45893V5.54226H38.5004V3.45893C38.5004 3.1827 38.395 2.91763 38.2075 2.72232C38.02 2.52701 37.7656 2.41726 37.5004 2.41726H21.5004C20.9481 2.41726 20.5004 2.88369 20.5004 3.45893V33.6673C20.5004 33.9435 20.6057 34.2086 20.7932 34.4039C20.9807 34.5992 21.2352 34.7089 21.5004 34.7089H26.5004L26.5004 36.7922Z" fill="white"/>
<path d="M29.5001 24.2916C29.122 24.2916 28.776 24.0698 28.6059 23.7177C28.0639 22.5938 26.226 19.5655 24.2577 19.053H24.2581C23.813 18.9367 23.501 18.5205 23.501 18.0425C23.501 17.5649 23.813 17.1482 24.2581 17.032C26.226 16.5195 28.0639 13.4903 28.6063 12.3672L28.6059 12.3677C28.7943 12.0403 29.1336 11.8398 29.5001 11.8398C29.8666 11.8398 30.2059 12.0403 30.3943 12.3677C30.9362 13.4916 32.7742 16.5199 34.7425 17.0324L34.7421 17.032C35.1871 17.1482 35.4992 17.5649 35.4992 18.0425C35.4992 18.5205 35.1871 18.9367 34.7421 19.053C32.7742 19.5654 30.9362 22.5946 30.3938 23.7177H30.3943C30.2242 24.0698 29.8782 24.2916 29.5001 24.2916V24.2916ZM26.7162 18.0416C27.8082 18.9298 28.7492 20.0027 29.5001 21.2154C30.251 20.0025 31.1921 18.9298 32.284 18.0416C31.192 17.1534 30.2509 16.0805 29.5001 14.8678C28.7492 16.0806 27.8081 17.1534 26.7162 18.0416Z" fill="white"/>
<path d="M15.9459 40.9598C15.3936 40.9598 14.853 40.791 14.3918 40.4743C13.7427 40.0344 13.2909 39.341 13.1377 38.5505L7.56095 10.3672C7.4038 9.58591 7.54845 8.77168 7.96407 8.10109C8.37969 7.43049 9.03238 6.95758 9.78064 6.78502L19.2918 4.67383L19.7079 6.71014L10.1999 8.82276C9.71598 8.93994 9.41286 9.44124 9.52 9.94627L15.0999 38.1284C15.1468 38.3753 15.2869 38.592 15.4887 38.7302C15.6776 38.8599 15.9088 38.905 16.1298 38.8552L30.7995 35.5968C31.029 35.5447 31.2281 35.3982 31.3526 35.1908L33.0397 36.3115C32.6276 36.99 31.9705 37.4671 31.2165 37.6345L16.5434 40.8939C16.3465 40.9372 16.146 40.9595 15.9452 40.9595L15.9459 40.9598Z" fill="white"/>
<path d="M14.0248 48.2509C13.4645 48.2514 12.9167 48.0812 12.448 47.7622C11.9792 47.4427 11.61 46.9879 11.3859 46.4531L0.733693 20.8555C0.432802 20.1333 0.422082 19.3157 0.703782 18.5853C0.985474 17.8547 1.53682 17.2725 2.23373 16.9679L9.08858 13.9629L9.86358 15.884L3.00952 18.8838C2.80505 18.9722 2.64345 19.1429 2.56041 19.3568C2.47737 19.5707 2.4805 19.8107 2.56889 20.0222L13.2207 45.6258C13.4122 46.0778 13.9157 46.2875 14.3537 46.0978L27.9903 40.1194C28.1947 40.031 28.3563 39.8603 28.4394 39.6464C28.5224 39.4325 28.5193 39.1925 28.4309 38.981L27.6938 37.2101L29.5287 36.3768L30.2658 38.1476H30.2662C30.5671 38.8698 30.5778 39.6874 30.2961 40.4179C30.0144 41.1484 29.4631 41.7306 28.7662 42.0352L15.1296 48.0174C14.78 48.1718 14.4046 48.2518 14.0247 48.2518L14.0248 48.2509Z" fill="white"/>
<path d="M54.3288 57.6106C48.836 56.6703 44.1275 53.0012 41.7094 47.7785C40.5643 45.2343 39.8424 42.506 39.5755 39.7098L39.5304 39.2378L39.4496 39.1118C38.5237 37.6613 36.9616 36.7908 35.2893 36.7931H27.0005C25.393 36.7931 23.9073 35.8998 23.1032 34.4493C22.2996 32.9988 22.2996 31.2123 23.1032 29.7618C23.9072 28.3113 25.3929 27.418 27.0005 27.418H36.9094C38.779 27.4189 40.617 27.9151 42.2514 28.8605L48.9863 32.7574L48.0144 34.5784L41.2795 30.6815C39.9425 29.9082 38.4389 29.5022 36.9095 29.5013H27.0005C26.1072 29.5013 25.2823 29.9975 24.8354 30.8034C24.389 31.6093 24.389 32.6016 24.8354 33.4076C25.2823 34.2135 26.1073 34.7097 27.0005 34.7097H35.2893C37.6304 34.707 39.8175 35.9258 41.1135 37.9565L41.3327 38.2983C41.4255 38.4392 41.4831 38.602 41.5005 38.7722L41.5706 39.5014C41.8153 42.0641 42.4764 44.5655 43.5264 46.8972C45.667 51.5042 49.8278 54.7371 54.6772 55.5606L54.3288 57.6106Z" fill="white"/>
<path d="M57.6167 43.5303L53.3006 35.0282C51.076 30.6224 47.0273 27.5291 42.3247 26.6427L42.6868 24.5938C47.9898 25.595 52.5546 29.0841 55.0628 34.0534L59.3846 42.5555L57.6167 43.5303Z" fill="white"/>
<path d="M53.5 62.8348C43.1429 62.8348 38.5869 53.1951 37.7183 51.0918L36.0536 50.2306C35.713 50.0534 35.4983 49.6897 35.5005 49.2931C35.5005 44.9325 36.3465 42.0336 38.0166 40.6775C38.7755 40.0223 39.7756 39.7549 40.7434 39.9483L40.2844 41.9763C39.8876 41.934 39.492 42.0726 39.2005 42.3567C38.5956 42.8775 37.6005 44.3879 37.5077 48.6528L38.9479 49.4019L38.9475 49.4015C39.1756 49.521 39.3515 49.7265 39.4395 49.9762C39.5948 50.4171 43.3515 60.7515 53.5012 60.7515L53.5 62.8348Z" fill="white"/>
<path d="M63.5003 67.0008H52.5003C52.2145 67.0008 51.9427 66.8734 51.7529 66.6511C51.5632 66.4288 51.4739 66.1326 51.5074 65.8373C51.5904 65.1021 53.6132 47.7278 59.7413 40.2826C59.9311 40.0514 60.2083 39.9184 60.5003 39.918H63.5003C63.7655 39.918 64.0199 40.0277 64.2074 40.223C64.3949 40.4183 64.5003 40.6834 64.5003 40.9596V65.9596C64.5003 66.2359 64.3949 66.5009 64.2074 66.6962C64.0199 66.8915 63.7655 67.0013 63.5003 67.0013L63.5003 67.0008ZM53.6462 64.9175H62.5003V42.0008H60.9703C56.3061 48.0811 54.2003 60.9806 53.6462 64.9175Z" fill="white"/>
<path d="M36.5004 50.3345H23.0009C21.7505 50.3345 20.5951 49.6398 19.9697 48.5117C19.3447 47.3835 19.3447 45.994 19.9697 44.8658C20.5952 43.7377 21.7505 43.043 23.0009 43.043H37.5015V45.1263H23.0009C22.1724 45.1263 21.5009 45.8257 21.5009 46.6888C21.5009 47.5519 22.1724 48.2513 23.0009 48.2513H36.5004V50.3345Z" fill="white"/>
<path d="M32.5 37.834H40.5V39.9173H32.5V37.834Z" fill="white"/>
<path d="M55.5 61.793H57.5V63.8763H55.5V61.793Z" fill="white"/>
</svg>
