<svg width="57" height="29" viewBox="0 0 57 29" fill="none" xmlns="http://www.w3.org/2000/svg">
<path d="M32.4648 22.9004V8.93555H38.7148C41.5664 8.93555 42.9922 10.2474 42.9922 12.8711C42.9922 15.7161 41.0423 17.4382 37.1426 18.0371L36.7715 15.7324C39.1152 15.3092 40.2871 14.3815 40.2871 12.9492C40.2871 11.7904 39.7077 11.2109 38.5488 11.2109H35.0527V22.9004H32.4648ZM55.7656 8.93555L50.9512 20.2832C50.209 22.028 48.9427 22.9004 47.1523 22.9004C46.319 22.9004 45.5508 22.6725 44.8477 22.2168V20.166C45.5378 20.6217 46.2962 20.8496 47.123 20.8496C47.9954 20.8496 48.5521 20.5046 48.793 19.8145L43.7344 8.93555H46.5078L49.9746 17.041L52.9922 8.93555H55.7656Z" fill="white"/>
<path d="M13 0.900391C10.4288 0.900391 7.91543 1.66283 5.77759 3.09129C3.63975 4.51974 1.97351 6.55007 0.989572 8.9255C0.00563272 11.3009 -0.251811 13.9148 0.249797 16.4366C0.751405 18.9583 1.98953 21.2747 3.80762 23.0928C5.6257 24.9109 7.94208 26.149 10.4638 26.6506C12.9856 27.1522 15.5994 26.8948 17.9749 25.9108C20.3503 24.9269 22.3806 23.2606 23.8091 21.1228C25.2376 18.985 26 16.4715 26 13.9004C25.9963 10.4537 24.6254 7.14928 22.1883 4.71212C19.7511 2.27495 16.4467 0.904118 13 0.900391V0.900391ZM22.3676 8.48372H18.8782C18.097 6.67346 17.0686 4.98032 15.8221 3.45272C18.5808 4.20339 20.9325 6.01098 22.3676 8.48372ZM17.875 13.9004C17.8661 15.0034 17.6923 16.0988 17.3593 17.1504H8.64067C8.30771 16.0988 8.1339 15.0034 8.125 13.9004C8.1339 12.7974 8.30771 11.702 8.64067 10.6504H17.3593C17.6923 11.702 17.8661 12.7974 17.875 13.9004ZM9.5095 19.3171H16.4905C15.571 21.1324 14.3955 22.8063 13 24.2874C11.604 22.8067 10.4284 21.1328 9.5095 19.3171ZM9.5095 8.48372C10.429 6.66835 11.6045 4.99448 13 3.51339C14.396 4.99406 15.5716 6.66801 16.4905 8.48372H9.5095ZM10.1833 3.45272C8.93497 4.97999 7.90464 6.67315 7.12184 8.48372H3.63242C5.06876 6.00986 7.42263 4.20212 10.1833 3.45272ZM2.66609 10.6504H6.39167C6.11083 11.7111 5.96523 12.8031 5.95834 13.9004C5.96523 14.9977 6.11083 16.0896 6.39167 17.1504H2.66609C2.00021 15.0349 2.00021 12.7659 2.66609 10.6504ZM3.63242 19.3171H7.12184C7.90464 21.1276 8.93497 22.8208 10.1833 24.3481C7.42263 23.5987 5.06876 21.7909 3.63242 19.3171ZM15.8221 24.3481C17.0686 22.8205 18.097 21.1273 18.8782 19.3171H22.3676C20.9325 21.7898 18.5808 23.5974 15.8221 24.3481ZM23.3339 17.1504H19.6083C19.8892 16.0896 20.0348 14.9977 20.0417 13.9004C20.0348 12.8031 19.8892 11.7111 19.6083 10.6504H23.3318C23.9976 12.7659 23.9976 15.0349 23.3318 17.1504H23.3339Z" fill="white"/>
</svg>
