<svg width="359" height="72" viewBox="0 0 359 72" fill="none" xmlns="http://www.w3.org/2000/svg">
<path d="M42.2224 9.33496H0.708274V18.4018H29.2146L0 54.8581V62.6532H41.5141V53.5864H13.8875L42.2224 17.1138V9.33496Z" fill="#6DCB1F"/>
<path d="M89.3226 9.33496H47.8085V18.4018H76.3148L47.1002 54.8581V62.6532H88.6144V53.5864H60.9877L89.3226 17.1138V9.33496Z" fill="#6DCB1F"/>
<path d="M353.303 39.8331C354.927 39.9914 356.225 41.2581 356.387 42.8439L358.983 68.236C359.192 70.2876 357.449 71.9894 355.348 71.7847L329.337 69.2505C327.712 69.0923 326.415 67.8256 326.253 66.2397L323.657 40.8476C323.447 38.7961 325.19 37.0942 327.292 37.299L353.303 39.8331Z" fill="#6DCB1F"/>
<path d="M298.152 63.7681C298.552 65.6112 299.495 67.3796 300.978 68.8266C304.946 72.7005 311.274 72.8035 315.113 69.0566C319.747 64.5325 322.632 54.773 319.502 39.9777C319.352 39.2709 318.774 38.7061 318.05 38.5601C302.894 35.5044 292.897 38.3206 288.262 42.8447C284.424 46.5916 284.529 52.7696 288.498 56.6436C289.961 58.0724 291.746 58.9883 293.609 59.3872C291.404 60.6477 288.751 61.9654 285.696 63.1735C286.137 63.4958 287.78 64.8823 290.159 67.205C292.538 69.5278 293.959 71.1308 294.289 71.5613C295.566 68.4838 296.878 65.9066 298.152 63.7681Z" fill="white"/>
<path d="M298.144 12.3648L298.127 12.3745L298.117 12.3913C294.787 11.5437 291.071 12.4128 288.433 14.988C284.499 18.8283 284.452 25.0083 288.327 28.7914C293.006 33.3592 303.034 36.2663 318.169 33.3449C318.892 33.2054 319.465 32.6454 319.608 31.9396C322.601 17.1653 319.623 7.37541 314.944 2.80762C311.068 -0.975494 304.738 -0.929176 300.804 2.91108C298.166 5.48628 297.276 9.11361 298.144 12.3648Z" fill="#6DCB1F"/>
<path d="M347.433 14.6037C350.746 14.6643 354.546 16.276 356.605 18.293C359.814 21.4373 359.796 26.5527 356.565 29.7186C353.334 32.8845 348.114 32.902 344.905 29.7578C343.399 28.2822 342.115 25.8932 341.509 23.4458C341.327 26.6142 339.699 30.1707 337.695 32.1343C334.464 35.3002 329.243 35.3177 326.035 32.1734C322.826 29.0291 322.844 23.9137 326.075 20.7478C328.001 18.86 331.431 17.3123 334.566 17.037C332.263 16.3993 330.067 15.218 328.671 13.8503C325.462 10.706 325.48 5.59058 328.711 2.42469C331.942 -0.741205 337.162 -0.758733 340.371 2.38554C342.348 4.32264 343.943 7.83406 344.121 10.9851C345.989 8.32406 348.025 4.73184 349.982 0.000976562C350.323 0.447888 351.792 2.11196 354.252 4.52321C356.713 6.93445 358.411 8.37373 358.868 8.70824C353.905 10.6786 350.17 12.7317 347.433 14.6037Z" fill="white"/>
<path d="M113.244 10.4215H100.791C100.333 10.4215 100.027 10.7223 100.027 11.1737V62.3226C100.027 62.7739 100.333 63.0748 100.791 63.0748H104.917C105.375 63.0748 105.681 62.7739 105.681 62.3226V47.6549C105.681 47.4292 105.833 47.2788 106.063 47.2788H113.244C125.926 47.2788 133.412 40.133 133.412 28.8501C133.412 17.5673 125.926 10.4215 113.244 10.4215ZM105.681 41.5621V16.1381C105.681 15.9125 105.833 15.762 106.063 15.762H112.709C122.106 15.762 127.454 20.1247 127.454 28.8501C127.454 37.5755 122.106 41.9382 112.709 41.9382H106.063C105.833 41.9382 105.681 41.7878 105.681 41.5621Z" fill="white"/>
<path d="M155.106 63.827C165.42 63.827 172.983 55.6281 172.983 45.624C172.983 35.6198 165.42 27.421 155.106 27.421C144.793 27.421 137.23 35.6198 137.23 45.624C137.23 55.6281 144.793 63.827 155.106 63.827ZM155.106 58.7873C147.849 58.7873 142.883 52.845 142.883 45.624C142.883 38.4029 147.849 32.4606 155.106 32.4606C162.364 32.4606 167.33 38.4029 167.33 45.624C167.33 52.845 162.364 58.7873 155.106 58.7873Z" fill="white"/>
<path d="M202.452 63.0748H207.112C207.723 63.0748 207.952 62.6987 207.647 62.1721L196.111 43.0665C195.805 42.54 195.882 42.2391 196.264 41.7878L206.959 29.151C207.417 28.6245 207.112 28.1732 206.501 28.1732H201.229C200.847 28.1732 200.542 28.3236 200.313 28.6245L188.395 42.8409C188.013 43.3674 187.631 43.2922 187.631 42.6904V9.3684C187.631 8.91709 187.249 8.61621 186.79 8.61621H182.818C182.36 8.61621 182.054 8.91709 182.054 9.3684V62.3226C182.054 62.7739 182.36 63.0748 182.818 63.0748H186.79C187.249 63.0748 187.631 62.7739 187.631 62.3226V52.3185C187.631 51.7167 187.707 51.4911 188.089 50.9645L191.298 47.2036C191.603 46.8275 191.985 46.9027 192.215 47.354L201.306 62.3978C201.535 62.8491 201.917 63.0748 202.452 63.0748Z" fill="white"/>
<path d="M229.792 63.9022C235.216 63.9022 240.029 61.6456 243.62 57.9599C243.925 57.659 243.925 57.2829 243.62 56.982L241.098 54.2742C240.717 53.8981 240.335 54.0485 239.8 54.575C237.355 57.0573 233.994 58.9377 229.792 58.9377C222.993 58.9377 218.485 54.6502 217.645 48.1062C217.492 47.354 217.798 47.1283 218.332 47.1283H245.3C245.759 47.1283 245.988 46.9027 246.064 46.5266C246.141 45.9248 246.141 45.3231 246.141 44.7966C246.141 34.7172 238.807 27.421 229.028 27.421C219.249 27.421 211.762 34.5668 211.762 45.624C211.762 56.6812 219.249 63.9022 229.792 63.9022ZM239.494 42.7656H218.485C217.798 42.7656 217.645 42.54 217.798 41.9382C218.714 36.372 223.222 32.3854 229.028 32.3854C234.91 32.3854 239.189 36.2216 240.182 41.863C240.335 42.54 240.105 42.7656 239.494 42.7656Z" fill="white"/>
<path d="M270.299 27.421C265.792 27.421 262.659 29.5271 260.673 31.8589C260.368 32.1598 260.138 32.0093 260.138 31.6332V28.9253C260.138 28.474 259.833 28.1732 259.374 28.1732H255.707C255.249 28.1732 254.943 28.474 254.943 28.9253V62.3226C254.943 62.7739 255.249 63.0748 255.707 63.0748H259.756C260.215 63.0748 260.52 62.7739 260.52 62.3226V39.0047C260.52 38.3277 260.597 37.8012 261.055 37.1242C262.812 34.5668 265.486 32.6863 269.459 32.6863C269.993 32.6863 270.681 32.7615 271.292 32.8367C271.827 32.9872 272.133 32.7615 272.133 32.235V28.2484C272.133 27.7971 271.903 27.4962 271.445 27.4962C271.063 27.421 270.681 27.421 270.299 27.421Z" fill="white"/>
</svg>
