<svg width="68" height="68" viewBox="0 0 68 68" fill="none" xmlns="http://www.w3.org/2000/svg">
<path d="M34 68C52.7822 68 68 52.7822 68 34C68 15.2178 52.7822 0 34 0C15.2178 0 0 15.2178 0 34C0 52.7822 15.2178 68 34 68ZM15.5578 33.2633L48.3395 20.6238C49.861 20.0742 51.1898 20.995 50.6968 23.2957L50.6997 23.2928L45.118 49.589C44.7043 51.4533 43.5965 51.9067 42.0467 51.0283L33.5467 44.7638L29.4468 48.7135C28.9935 49.1668 28.611 49.5493 27.7327 49.5493L28.3362 40.8992L44.0895 26.6673C44.7752 26.0638 43.9365 25.7238 43.0327 26.3245L23.5648 38.5815L15.1725 35.9635C13.3507 35.3855 13.311 34.1417 15.5578 33.2633V33.2633Z" fill="white"/>
</svg>
